<?xml version="1.0" encoding="UTF-8" standalone="no"?>
<!-- Created with Inkscape (http://www.inkscape.org/) -->

<svg
   width="19.587177mm"
   height="18.576311mm"
   viewBox="0 0 19.587177 18.576311"
   version="1.1"
   id="svg1"
   inkscape:version="1.3.1 (91b66b0783, 2023-11-16)"
   sodipodi:docname="flower.svg"
   xmlns:inkscape="http://www.inkscape.org/namespaces/inkscape"
   xmlns:sodipodi="http://sodipodi.sourceforge.net/DTD/sodipodi-0.dtd"
   xmlns="http://www.w3.org/2000/svg"
   xmlns:svg="http://www.w3.org/2000/svg">
  <sodipodi:namedview
     id="namedview1"
     pagecolor="#ffffff"
     bordercolor="#000000"
     borderopacity="0.25"
     inkscape:showpageshadow="2"
     inkscape:pageopacity="0.0"
     inkscape:pagecheckerboard="0"
     inkscape:deskcolor="#d1d1d1"
     inkscape:document-units="mm"
     inkscape:zoom="2.0686842"
     inkscape:cx="21.752958"
     inkscape:cy="8.9428828"
     inkscape:window-width="1920"
     inkscape:window-height="1017"
     inkscape:window-x="-8"
     inkscape:window-y="-8"
     inkscape:window-maximized="1"
     inkscape:current-layer="layer1" />
  <defs
     id="defs1" />
  <g
     inkscape:label="Layer 1"
     inkscape:groupmode="layer"
     id="layer1"
     transform="translate(-158.56825,-162.07516)">
    <g
       id="g8"
       transform="matrix(1.0810853,0,0,1.0657356,10.153816,-31.845707)">
      <g
         id="g7">
        <path
           id="rect1"
           style="fill:#ece7dd;fill-opacity:1;stroke:none;stroke-width:0.625326"
           d="m 144.67659,191.54571 c -0.0629,10e-4 -0.1384,0.01 -0.23358,0.0227 -1.62632,0.22291 -2.7683,1.3145 -3.06596,2.93005 -0.11896,0.64563 -0.14086,1.44822 -0.0419,1.5472 0.0969,0.0969 0.96975,0.0772 1.68724,-0.0382 1.74537,-0.28058 2.80503,-1.34846 2.89905,-2.92179 l 0.0439,-0.73794 -0.30541,-0.12661 c -0.16804,-0.0696 -0.41623,-0.25797 -0.55138,-0.41858 -0.16703,-0.1985 -0.24344,-0.26026 -0.43202,-0.25683 z" />
        <path
           id="path7"
           style="fill:#ece7dd;fill-opacity:1;stroke:none;stroke-width:0.625326"
           d="m 148.11204,191.53383 c -0.17243,-0.003 -0.21865,0.06 -0.34055,0.22737 -0.10747,0.14753 -0.36582,0.35521 -0.57412,0.46147 -0.37695,0.19231 -0.37879,0.19603 -0.37879,0.78135 0,1.05215 0.68871,2.07777 1.76372,2.6262 0.5147,0.26258 1.60446,0.4733 2.3244,0.44958 l 0.53537,-0.0176 -0.016,-0.79788 c -0.009,-0.43887 -0.0855,-1.03753 -0.17053,-1.33015 -0.32333,-1.1122 -1.4837,-2.13176 -2.65359,-2.33216 -0.23784,-0.0407 -0.38643,-0.0665 -0.48989,-0.0682 z" />
        <path
           id="path6"
           style="fill:#ece7dd;fill-opacity:1;stroke:none;stroke-width:0.625326"
           d="m 140.87941,187.06537 c -0.44572,-0.004 -0.81778,0.007 -0.91313,0.0305 l -0.23099,0.0584 0.12971,0.65784 c 0.33605,1.70176 0.84676,2.45997 2.05155,3.04684 0.66098,0.32198 0.80983,0.33701 1.37976,0.1385 0.23103,-0.0805 0.64027,-0.17835 0.90899,-0.21756 l 0.48834,-0.0713 0.0439,-0.65319 c 0.0388,-0.57992 0.0109,-0.71784 -0.24701,-1.22886 -0.36844,-0.72987 -0.78986,-1.1505 -1.46761,-1.46554 -0.45687,-0.21237 -0.70465,-0.25482 -1.68052,-0.28629 -0.15741,-0.005 -0.31445,-0.008 -0.46302,-0.009 z" />
        <path
           id="path5"
           style="fill:#ece7dd;fill-opacity:1;stroke:none;stroke-width:0.625326"
           d="m 153.11949,187.04521 -1.47433,0.031 c -1.43983,0.0303 -1.48944,0.0384 -2.12029,0.34933 -0.68321,0.33672 -1.0683,0.706 -1.49344,1.43144 -0.25118,0.42861 -0.25485,0.4549 -0.10387,0.77308 0.0859,0.18112 0.15606,0.48518 0.15606,0.67541 0,0.32393 0.0235,0.3494 0.36535,0.40669 0.52142,0.0874 1.2778,0.33623 1.34307,0.44184 0.0712,0.11525 0.0535,0.11721 0.59996,-0.0677 1.04868,-0.35488 1.97814,-1.23177 2.32286,-2.19212 0.0837,-0.23324 0.2091,-0.74457 0.27854,-1.13636 z" />
        <path
           id="path4"
           style="fill:#ece7dd;fill-opacity:1;stroke:none;stroke-width:0.625326"
           d="m 146.38811,183.72552 -0.69453,0.72398 c -0.77871,0.81221 -1.01327,1.32047 -1.02164,2.21279 -0.004,0.46 0.0661,0.68287 0.4625,1.46813 l 0.46716,0.92552 0.37982,-0.12712 c 0.27956,-0.0938 0.45607,-0.10029 0.67128,-0.0253 0.42691,0.14882 0.43664,0.14349 0.68471,-0.3607 0.12511,-0.25429 0.3725,-0.69221 0.54984,-0.97307 l 0.32246,-0.51057 -0.11369,-0.68988 c -0.14986,-0.9074 -0.38291,-1.33924 -1.10794,-2.0531 z" />
      </g>
    </g>
    <path
       style="fill:#adadad;fill-opacity:1;stroke-width:0.0283984"
       d="m 168.68252,169.37692 c -0.056,-0.26883 -0.0246,-0.59156 0.0561,-0.57702 0.053,0.01 0.0983,-0.0337 0.1007,-0.0962 0.002,-0.0625 0.0443,-0.15006 0.093,-0.19467 0.051,-0.0467 0.0606,-0.0323 0.0228,0.0338 -0.0362,0.0632 -0.0304,0.13684 0.0129,0.1636 0.10789,0.0667 0.14632,-0.54151 0.0386,-0.61172 -0.0474,-0.0309 -0.11331,-0.23136 -0.14654,-0.4455 -0.0419,-0.2702 -0.0334,-0.32977 0.0278,-0.19467 0.0706,0.15589 0.0896,0.16245 0.095,0.0329 0.007,-0.16494 0.15445,-0.18462 0.37073,-0.0495 0.08,0.05 0.10284,0.0291 0.0678,-0.062 -0.0386,-0.10067 0.0248,-0.13424 0.2374,-0.12567 0.15956,0.006 0.32613,0.0477 0.37016,0.0918 0.044,0.044 0.0144,0.0654 -0.0659,0.0476 -0.0902,-0.02 -0.13144,0.0234 -0.10791,0.11356 0.0682,0.26147 0.023,0.51612 -0.10622,0.59809 -0.099,0.0628 -0.0947,0.0807 0.0195,0.0821 0.0803,10e-4 -3.5e-4,0.0911 -0.17923,0.20014 -0.21405,0.1305 -0.30593,0.24856 -0.26878,0.34536 0.0366,0.0952 0.0167,0.12252 -0.0563,0.0774 -0.076,-0.047 -0.0919,-0.0152 -0.0487,0.0973 0.0403,0.10498 0.0259,0.14344 -0.0386,0.10353 -0.0565,-0.0349 -0.0946,-0.004 -0.0847,0.0679 0.0384,0.27977 -0.0122,0.37477 -0.19969,0.37477 -0.10707,0 -0.20152,-0.0328 -0.20988,-0.073 z"
       id="path28" />
    <path
       style="fill:#adadad;fill-opacity:1;stroke-width:0.0283984"
       d="m 171.52044,176.46761 c -0.23553,-0.0662 -0.23709,-0.072 -0.0487,-0.18201 0.10707,-0.0625 0.13992,-0.11498 0.073,-0.11661 -0.0669,-0.002 -0.12167,-0.0869 -0.12167,-0.18952 0,-0.10261 -0.0548,-0.20865 -0.12167,-0.23565 -0.0749,-0.0302 -0.0584,-0.0521 0.0429,-0.0568 0.0905,-0.004 0.1921,0.0368 0.22573,0.0912 0.0336,0.0544 0.0969,0.0768 0.14071,0.0497 0.0438,-0.0271 0.13371,0.016 0.19987,0.0957 0.0661,0.0797 0.18061,0.14493 0.25436,0.14493 0.23189,0 0.1456,0.29245 -0.11559,0.39175 -0.13732,0.0522 -0.25777,0.0906 -0.26767,0.0852 -0.01,-0.005 -0.1275,-0.0405 -0.26133,-0.078 z"
       id="path27" />
    <path
       style="fill:#adadad;fill-opacity:1;stroke-width:0.0283984"
       d="m 172.77179,176.54302 c -0.18477,-0.0677 -0.24394,-0.14555 -0.20983,-0.27599 0.0307,-0.11737 -0.0246,-0.22028 -0.15634,-0.29076 -0.16851,-0.0902 -0.20265,-0.19707 -0.197,-0.61668 0.005,-0.35764 0.03,-0.45007 0.0852,-0.31291 0.0431,0.10707 0.0618,0.22343 0.0417,0.25859 -0.0201,0.0352 0.0486,0.0416 0.15273,0.0144 0.14619,-0.0382 0.22273,0.0304 0.33584,0.30108 0.0806,0.19283 0.198,0.3506 0.26095,0.3506 0.0747,0 0.0946,0.0992 0.0574,0.28516 -0.0359,0.17967 -0.0134,0.30285 0.0608,0.33299 0.22624,0.0918 -0.17091,0.049 -0.43147,-0.0465 z"
       id="path26" />
    <path
       style="fill:#adadad;fill-opacity:1;stroke-width:0.0283984"
       d="m 168.60039,168.9887 c 0,-0.0634 0.0985,-0.20773 0.219,-0.32083 0.14013,-0.13156 0.16642,-0.19428 0.073,-0.17413 -0.16617,0.0359 -0.16326,0.0824 -0.0573,-0.91626 0.0546,-0.51471 0.11485,-0.73357 0.19027,-0.6914 0.0641,0.0358 0.0593,0.007 -0.0113,-0.0694 -0.0669,-0.0721 -0.12099,-0.22087 -0.12017,-0.33061 0.001,-0.16095 0.019,-0.17185 0.092,-0.0564 0.17246,0.27271 0.23215,-5e-4 0.0687,-0.31449 -0.1134,-0.21784 -0.14559,-0.24387 -0.1041,-0.0842 0.0366,0.14095 0.0226,0.20803 -0.036,0.17185 -0.0528,-0.0326 -0.11674,-0.1386 -0.14207,-0.23548 -0.0337,-0.12874 0.0135,-0.18107 0.17513,-0.19445 0.23252,-0.0192 0.67468,0.16888 0.69612,0.29618 0.0647,0.38413 0.15281,0.65539 0.21287,0.65539 0.04,0 0.0525,0.13762 0.0279,0.30583 -0.0275,0.18724 -0.008,0.28274 0.0515,0.24628 0.0579,-0.0358 0.0777,0.0381 0.0496,0.18494 -0.0511,0.2675 -0.11961,0.25794 -0.16068,-0.0225 -0.0158,-0.10772 -0.11213,-0.18376 -0.24145,-0.19055 -0.14828,-0.008 -0.19872,0.0316 -0.16222,0.12672 0.0352,0.0918 0.0126,0.11279 -0.0676,0.0627 -0.2535,-0.15838 -0.36062,-0.0999 -0.42267,0.23088 -0.0411,0.21923 -0.0236,0.36743 0.0488,0.41215 0.0622,0.0384 0.10264,0.20579 0.09,0.37195 -0.0127,0.16616 -0.0547,0.28251 -0.0935,0.25855 -0.0388,-0.024 -0.13918,0.0545 -0.22315,0.17439 -0.084,0.11988 -0.15266,0.16612 -0.15266,0.10276 z"
       id="path25" />
    <path
       style="fill:#adadad;fill-opacity:1;stroke-width:0.0283984"
       d="m 164.91163,176.48707 c 0.0389,-0.23095 -0.037,-0.32238 -0.27763,-0.3343 -0.2295,-0.0114 -0.23644,-0.0193 -0.0487,-0.0554 0.12045,-0.0232 0.219,-0.0829 0.219,-0.13275 0,-0.0498 0.0328,-0.0854 0.073,-0.079 0.0402,0.006 0.10586,8.6e-4 0.14601,-0.0122 0.12306,-0.0399 0.26266,-0.0718 0.37075,-0.0845 0.0567,-0.007 0.0718,-0.0627 0.0336,-0.12454 -0.0426,-0.0689 -0.0267,-0.086 0.0409,-0.0442 0.0607,0.0375 0.19621,0.0223 0.30113,-0.0339 0.11711,-0.0627 0.21264,-0.0667 0.2474,-0.0105 0.0311,0.0504 0.1433,0.0749 0.24924,0.0545 0.21079,-0.0406 0.26657,0.10034 0.071,0.17927 -0.0669,0.027 -0.0205,0.0525 0.10308,0.0568 0.12607,0.004 0.1979,0.0511 0.16361,0.10661 -0.0336,0.0544 -0.10192,0.0737 -0.15175,0.0429 -0.0498,-0.0308 -0.0906,-0.0144 -0.0906,0.0365 0,0.0509 -0.16425,0.15707 -0.36501,0.23598 -0.46633,0.1833 -1.10208,0.29973 -1.08505,0.19871 z"
       id="path24" />
    <path
       style="fill:#adadad;fill-opacity:1;stroke-width:0.0283984"
       d="m 171.62916,171.62145 c -0.12758,-0.12117 -0.2767,-0.19266 -0.33138,-0.15887 -0.0615,0.038 -0.0691,0.0123 -0.0197,-0.0675 0.0573,-0.0928 0.0357,-0.11203 -0.0773,-0.0687 -0.11025,0.0423 -0.14089,0.0182 -0.10289,-0.0808 0.0347,-0.0905 -0.008,-0.14104 -0.11851,-0.14104 -0.095,0 -0.14406,-0.0286 -0.10912,-0.0635 0.0349,-0.0349 0.19632,-0.0598 0.35864,-0.0551 0.16232,0.005 0.27238,-0.0284 0.24458,-0.0734 -0.0278,-0.045 0.0439,-0.0571 0.15947,-0.0269 0.15646,0.0409 0.18989,0.0223 0.1311,-0.0728 -0.0515,-0.0834 -0.0409,-0.10422 0.0306,-0.06 0.0602,0.0372 0.24349,-0.002 0.40724,-0.0863 0.16375,-0.0847 0.35119,-0.12186 0.41653,-0.0826 0.0754,0.0452 0.07,0.0111 -0.0148,-0.0934 -0.13153,-0.16214 -0.0673,-0.218 0.20368,-0.17718 0.0385,0.006 0.1174,-0.0778 0.17522,-0.18587 0.0578,-0.10803 0.14885,-0.1694 0.2023,-0.13637 0.0627,0.0387 0.0567,0.10882 -0.0168,0.1974 -0.0914,0.11013 -0.0769,0.13734 0.0731,0.13734 0.10292,0 0.24228,0.0547 0.30969,0.12167 0.0983,0.0976 0.10971,0.0879 0.0577,-0.0487 -0.0442,-0.11612 -0.0176,-0.17034 0.0836,-0.17034 0.0816,0 0.21436,-0.0253 0.29491,-0.0562 0.17845,-0.0685 0.16026,0.22864 -0.0209,0.34058 -0.066,0.0408 -0.10669,0.13383 -0.0905,0.20679 0.0162,0.073 -0.0143,0.13673 -0.0679,0.14171 -0.0535,0.005 -0.25064,0.10561 -0.43801,0.22362 -0.18737,0.11801 -0.39542,0.19396 -0.46234,0.16877 -0.0669,-0.0252 -0.12167,0.0158 -0.12167,0.0911 0,0.0753 -0.0828,0.13066 -0.18398,0.12304 -0.1186,-0.009 -0.1646,-0.0643 -0.12946,-0.15592 0.03,-0.0781 0.0142,-0.12186 -0.035,-0.0972 -0.0492,0.0247 -0.20849,0.10417 -0.35389,0.17664 -0.14539,0.0725 -0.24091,0.16966 -0.21227,0.216 0.0286,0.0463 0.0855,0.0636 0.12645,0.0383 0.0409,-0.0253 0.0744,0.0105 0.0744,0.0795 0,0.18692 -0.18148,0.14434 -0.44284,-0.1039 z"
       id="path23" />
    <path
       style="fill:#adadad;fill-opacity:1;stroke-width:0.0283984"
       d="m 165.38834,175.68702 c 0.13384,-0.1089 0.29809,-0.19898 0.36501,-0.20017 0.0669,-0.001 0.12167,-0.046 0.12167,-0.0995 0,-0.0535 0.0442,-0.0973 0.0982,-0.0973 0.054,0 0.23095,-0.12684 0.39318,-0.28188 0.19276,-0.18421 0.36109,-0.2646 0.48579,-0.23199 0.10541,0.0276 0.19082,10e-4 0.19082,-0.0588 0,-0.0598 -0.0657,-0.10869 -0.146,-0.10869 -0.15646,0 -0.20195,-0.15707 -0.0611,-0.21089 0.0467,-0.0179 0.20075,-0.2624 0.34231,-0.54346 0.14157,-0.28105 0.30046,-0.511 0.35309,-0.511 0.10524,0 0.12707,0.60302 0.0343,0.94901 -0.0323,0.12045 -0.11362,0.21901 -0.18076,0.21901 -0.081,0 -0.11433,0.12823 -0.0991,0.38127 0.0186,0.3076 -0.006,0.37023 -0.12588,0.32413 -0.10158,-0.039 -0.12512,-0.0187 -0.0741,0.0639 0.11277,0.18245 -0.32337,0.59474 -0.61954,0.58566 -0.13789,-0.004 -0.19595,-0.0298 -0.12903,-0.0568 0.19561,-0.0789 0.13983,-0.21986 -0.071,-0.17927 -0.10594,0.0204 -0.21783,-0.004 -0.24863,-0.0535 -0.0314,-0.0509 -0.23515,-0.003 -0.46439,0.10882 -0.40804,0.19929 -0.40818,0.19929 -0.16504,10e-4 z"
       id="path22" />
    <path
       style="fill:#adadad;fill-opacity:1;stroke-width:0.0283984"
       d="m 173.5158,170.42327 c -0.0331,-0.0535 -0.15053,-0.0973 -0.261,-0.0973 -0.1764,0 -0.18458,-0.02 -0.0673,-0.16469 0.11496,-0.14172 0.11323,-0.15467 -0.0124,-0.0928 -0.0803,0.0395 -0.0169,-0.0287 0.14094,-0.15166 0.47449,-0.36961 0.92878,-0.89413 0.92928,-1.07295 2.5e-4,-0.0924 0.10959,-0.23959 0.24296,-0.32698 0.13338,-0.0874 0.22027,-0.19488 0.19309,-0.23886 -0.0272,-0.044 0.002,-0.11165 0.0645,-0.15039 0.0712,-0.044 0.0879,-0.0282 0.0445,0.0419 -0.0382,0.0618 -0.0177,0.11237 0.0456,0.11237 0.0859,0 0.0844,0.0368 -0.006,0.14545 -0.0664,0.08 -0.0997,0.25519 -0.0741,0.38934 0.0321,0.16771 0.003,0.24389 -0.0916,0.24389 -0.076,0 -0.11,0.0457 -0.0755,0.1016 0.0345,0.0559 0.01,0.16538 -0.0548,0.24334 -0.0647,0.078 -0.085,0.14174 -0.0451,0.14174 0.0399,0 0.0237,0.0588 -0.0359,0.13062 -0.0596,0.0719 -0.0899,0.14915 -0.0672,0.17179 0.0226,0.0226 -0.0472,0.15002 -0.15529,0.28305 -0.10805,0.13304 -0.16357,0.17969 -0.12338,0.10367 0.0544,-0.1029 0.0297,-0.12155 -0.0968,-0.073 -0.0935,0.0359 -0.23673,0.0652 -0.31838,0.0652 -0.092,0 -0.12714,0.0556 -0.0924,0.146 0.0632,0.16473 0.008,0.19692 -0.0839,0.0487 z"
       id="path21" />
    <path
       style="fill:#adadad;fill-opacity:1;stroke-width:0.0283984"
       d="m 165.92368,176.40947 c 0.6681,-0.27297 1.66764,-1.20785 1.56826,-1.46681 -0.0368,-0.0958 -0.0177,-0.12494 0.0531,-0.0812 0.0778,0.048 0.0909,-0.0152 0.0446,-0.21395 -0.0413,-0.17723 -0.0335,-0.23387 0.021,-0.15229 0.11856,0.17745 0.20807,-0.174 0.2098,-0.8237 0.001,-0.40708 -0.0391,-0.52811 -0.21767,-0.65623 -0.21383,-0.15337 -0.21241,-0.15431 0.06,-0.0398 0.27825,0.11702 0.27886,0.11921 0.23513,0.85089 -0.0513,0.85825 -0.2797,1.37518 -0.86716,1.96264 -0.38105,0.38106 -1.24675,0.86315 -1.54497,0.86037 -0.0803,-7.5e-4 0.1168,-0.10874 0.438,-0.23997 z"
       id="path20" />
    <path
       id="path2"
       style="fill:#333333;fill-opacity:1;stroke-width:0.0283984"
       d="m 164.999,176.74419 c 1.74537,-0.28058 2.80503,-1.34861 2.89905,-2.92194 l 0.0441,-0.73776 -0.30552,-0.12655 c -0.16804,-0.0696 -0.41609,-0.25795 -0.55124,-0.41856 -0.2227,-0.26467 -0.28505,-0.28662 -0.66575,-0.23444 -1.62633,0.22291 -2.76858,1.31439 -3.06624,2.92995 -0.11896,0.64563 -0.1405,1.44861 -0.0415,1.54759 0.0969,0.0969 0.96965,0.0771 1.68714,-0.0383 z m 8.40352,-0.74342 c -0.009,-0.43887 -0.0856,-1.03735 -0.17062,-1.32997 -0.32333,-1.1122 -1.48331,-2.13186 -2.6532,-2.33226 -0.63424,-0.10864 -0.63577,-0.10834 -0.83081,0.15941 -0.10747,0.14753 -0.36582,0.35519 -0.57412,0.46145 -0.37695,0.19231 -0.37871,0.19594 -0.37871,0.78126 0,1.05215 0.68872,2.07758 1.76373,2.62601 0.5147,0.26258 1.60439,0.47339 2.32433,0.44967 l 0.53535,-0.0176 z m -10.9592,1.56968 c -0.14162,-0.14512 0.0398,-2.49664 0.23951,-3.10407 0.22176,-0.67458 0.56624,-1.29328 0.9133,-1.64035 l 0.24472,-0.24472 -0.59503,-0.31715 c -1.43545,-0.76508 -2.38435,-2.58481 -2.31474,-4.439 l 0.0285,-0.75994 1.36268,-0.0761 c 1.51396,-0.0846 2.37922,0.005 2.99872,0.31193 0.21856,0.10813 0.41339,0.18059 0.43297,0.16102 0.0196,-0.0196 0.0745,-0.31067 0.12199,-0.64688 0.13908,-0.98398 0.56593,-1.72162 1.48635,-2.56856 0.48243,-0.44391 0.88141,-0.7341 1.0093,-0.7341 0.13462,0 0.52818,0.30959 1.08269,0.85168 0.95088,0.92959 1.41638,1.712 1.53806,2.58521 0.0534,0.38289 0.0941,0.45586 0.22366,0.40056 0.84052,-0.35877 0.93995,-0.37159 2.72454,-0.3514 0.98309,0.0111 1.83145,0.0474 1.88524,0.0807 0.15759,0.0974 -0.0149,1.75377 -0.26452,2.54046 -0.26227,0.82648 -0.6554,1.47301 -1.23755,2.0352 -0.41599,0.40173 -1.08202,0.81243 -1.31751,0.81243 -0.19878,0 -0.13738,0.12182 0.26987,0.53534 0.68986,0.70052 1.06487,1.99557 1.06631,3.68244 l 7.4e-4,0.85972 -1.67903,-0.0324 c -1.64812,-0.0318 -1.69085,-0.038 -2.32166,-0.33687 -0.39384,-0.18661 -0.90328,-0.55038 -1.31588,-0.9396 l -0.67325,-0.63511 -0.51381,0.57219 c -0.39141,0.43589 -0.71254,0.67068 -1.34798,0.98555 l -0.83416,0.41334 -1.57021,0.037 c -0.86361,0.0203 -1.60335,0.003 -1.64385,-0.0385 z m 9.92539,-5.74743 c 1.04868,-0.35488 1.9779,-1.23199 2.32262,-2.19234 0.0837,-0.23325 0.20904,-0.74465 0.27848,-1.13644 l 0.12626,-0.71234 -1.47424,0.031 c -1.43983,0.0303 -1.48931,0.0384 -2.12016,0.34934 -0.68322,0.33672 -1.06868,0.70611 -1.49382,1.43155 -0.25118,0.42861 -0.25469,0.45475 -0.10371,0.77293 0.0859,0.18112 0.15627,0.48496 0.15627,0.67519 0,0.32393 0.0232,0.34977 0.36501,0.40706 0.52142,0.0874 1.27768,0.33616 1.34295,0.44177 0.0712,0.11525 0.0539,0.11721 0.60034,-0.0677 z m -7.09566,-0.0889 c 0.23103,-0.0805 0.63992,-0.17838 0.90864,-0.21759 l 0.48859,-0.0713 0.0437,-0.65316 c 0.0388,-0.57992 0.0111,-0.71771 -0.24683,-1.22873 -0.36844,-0.72987 -0.78982,-1.15074 -1.46758,-1.46579 -0.45687,-0.21237 -0.70481,-0.25457 -1.68068,-0.28604 -0.62962,-0.0203 -1.24877,-0.0108 -1.3759,0.0211 l -0.23113,0.058 0.12992,0.65795 c 0.33605,1.70176 0.84671,2.46025 2.0515,3.04712 0.66098,0.32198 0.80982,0.33691 1.37975,0.1384 z m 3.35629,-2.09406 c 0.42691,0.14882 0.43667,0.14369 0.68474,-0.36051 0.12511,-0.25429 0.37256,-0.69213 0.5499,-0.97299 l 0.32242,-0.51065 -0.11397,-0.69011 c -0.14986,-0.90741 -0.38286,-1.3392 -1.10789,-2.05306 l -0.59995,-0.59071 -0.69423,0.72408 c -0.77871,0.81221 -1.01338,1.32043 -1.02175,2.21275 -0.004,0.46 0.0659,0.68287 0.46234,1.46813 l 0.46743,0.9258 0.37943,-0.12728 c 0.27956,-0.0938 0.45632,-0.10047 0.67153,-0.0255 z" />
    <path
       style="fill:#adadad;fill-opacity:1;stroke-width:0.0283984"
       d="m 168.79616,172.12606 c 0.19001,-0.0983 0.32044,-0.27009 0.39571,-0.52133 0.27314,-0.91165 -0.72652,-1.65947 -1.41668,-1.05979 -0.34757,0.302 -0.41055,0.80692 -0.15219,1.22005 0.30405,0.48617 0.69723,0.60718 1.17316,0.36107 z"
       id="path15" />
  </g>
</svg>
