<?xml version="1.0" encoding="UTF-8" standalone="no"?>
<svg
   viewBox="0 0 298.27 74.56"
   version="1.1"
   id="svg28"
   sodipodi:docname="logo-sketch.svg"
   inkscape:version="1.4 (e7c3feb100, 2024-10-09)"
   xml:space="preserve"
   inkscape:export-filename="logo-dark.png"
   inkscape:export-xdpi="300"
   inkscape:export-ydpi="300"
   width="100%"
   height="100%"
   xmlns:inkscape="http://www.inkscape.org/namespaces/inkscape"
   xmlns:sodipodi="http://sodipodi.sourceforge.net/DTD/sodipodi-0.dtd"
   xmlns="http://www.w3.org/2000/svg"
   xmlns:svg="http://www.w3.org/2000/svg"><defs
     id="defs32" /><sodipodi:namedview
     id="namedview30"
     pagecolor="#eeeeee"
     bordercolor="#666666"
     borderopacity="1.0"
     inkscape:pageshadow="2"
     inkscape:pageopacity="1"
     inkscape:pagecheckerboard="0"
     showgrid="false"
     inkscape:zoom="2.1218788"
     inkscape:cx="109.10142"
     inkscape:cy="94.256089"
     inkscape:window-width="1872"
     inkscape:window-height="1011"
     inkscape:window-x="48"
     inkscape:window-y="32"
     inkscape:window-maximized="1"
     inkscape:current-layer="g2"
     inkscape:showpageshadow="2"
     inkscape:deskcolor="#d1d1d1" /><g
     id="g2"
     transform="matrix(0.29175965,0,0,0.29175965,9.1185753,0.59847461)">
	
<rect
   style="fill:#ece7dd;fill-opacity:1;stroke:none;stroke-width:16.7577"
   id="rect4179"
   width="1022.5078"
   height="255.55374"
   x="-31.354189"
   y="-2.041594" /><g
   id="g4186"
   transform="matrix(1.0699306,0,0,1.0699306,1.3413434,-0.42592079)"><g
     id="g4172"
     transform="matrix(0.3438351,0,0,0.3438351,-147.46332,121.28113)"><path
       style="fill:#e0e0e0;fill-opacity:1"
       d="m 394.45139,186.81691 c 3.88611,-9.98516 3.73672,-12.53431 -0.74412,-12.69725 -2.35639,-0.0857 -4.28435,-1.31256 -4.28435,-2.7264 0,-1.41383 0,-5.65534 0,-9.42557 0,-3.77022 1.27924,-6.85495 2.84276,-6.85495 1.56351,0 2.72029,3.47032 2.57061,7.71182 -0.19383,5.49259 1.94709,8.02701 7.43968,8.80708 5.39044,0.76557 7.71183,-0.65042 7.71183,-4.70402 0,-5.00765 -0.81877,-5.16522 -5.99809,-1.15432 -4.52812,3.5066 -4.31812,2.62508 0.85687,-3.59697 3.77023,-4.53306 5.02179,-7.17318 2.78126,-5.86693 -2.26014,1.31768 -5.57889,-0.31466 -7.45475,-3.66663 -1.85959,-3.3229 -4.52836,-4.89434 -5.9306,-3.49209 -3.63235,3.63235 -15.102,-7.64471 -15.102,-14.84841 0,-3.32096 -1.92796,-6.76084 -4.28435,-7.64417 -2.98817,-1.12016 -2.21046,-3.35736 2.57061,-7.39475 3.77023,-3.18379 4.927,-4.81212 2.57061,-3.61851 -2.58148,1.30762 -4.28435,-0.0994 -4.28435,-3.54001 0,-3.61221 1.84861,-5.00082 5.03145,-3.77945 2.7673,1.06191 6.09034,0.21744 7.38453,-1.87661 1.42489,-2.30551 0.79218,-2.84267 -1.60397,-1.36177 -4.4215,2.73264 -5.64628,-8.837162 -1.38644,-13.096998 1.41383,-1.413835 2.57061,-4.370035 2.57061,-6.569334 0,-2.199299 2.31354,-3.998725 5.14121,-3.998725 2.82767,0 5.33402,-1.927957 5.56966,-4.284349 1.29006,-12.900673 1.32104,-12.962198 4.22249,-8.387773 1.55772,2.4559 4.23324,3.998266 5.9456,3.427479 1.71237,-0.570787 3.81505,0.504572 4.67265,2.389685 2.33181,5.125653 17.95848,12.473779 22.67666,10.663243 2.69166,-1.032889 3.49123,0.829501 2.30447,5.367678 -0.99951,3.822142 0.0756,8.119201 2.38906,9.549024 3.10589,1.91954 2.73956,3.16253 -1.40026,4.75112 -3.08364,1.18331 -4.91721,1.01236 -4.07461,-0.37989 4.12058,-6.808474 -12.25712,-11.923828 -20.88397,-6.522823 -2.3564,1.475264 -4.28435,1.581042 -4.28435,0.235062 0,-1.345979 -3.08473,0.344408 -6.85496,3.756421 -3.77023,3.412 -6.90186,4.80782 -6.95918,3.10182 -0.0573,-1.706 -1.49708,-0.723 -3.19945,2.18446 -8.33136,14.22902 3.29322,44.41216 17.10467,44.41216 4.7015,0 5.79988,2.92404 5.46687,14.55359 -0.26842,9.37421 1.10799,14.71075 3.86761,14.99522 2.3564,0.24289 8.14027,0.63442 12.85305,0.87006 5.14122,0.25706 8.5687,2.48492 8.5687,5.56965 0,4.08771 -4.99155,5.14122 -24.35906,5.14122 -21.8034,0 -24.11414,-0.62929 -22.02466,-5.99809 z m 262.86504,-9.58684 c -2.1877,-4.80148 -3.97764,-10.82654 -3.97764,-13.38903 0,-3.04723 -2.49289,-4.00716 -7.20578,-2.77471 -4.22169,1.10399 -8.45817,-0.0934 -10.22996,-2.89149 -2.33712,-3.69086 -3.04801,-3.21852 -3.12913,2.07911 -0.0745,4.86358 -0.91609,5.57662 -2.89712,2.45453 -1.62604,-2.56264 -5.5406,-3.47354 -9.37308,-2.18106 -3.61951,1.22065 4.00107,-4.12539 16.93463,-11.88009 23.13799,-13.87309 33.56991,-18.54297 21.17312,-9.47821 -6.4265,4.69917 -4.37518,14.48431 2.18631,10.42909 2.27309,-1.40485 2.72301,0.43148 1.24594,5.0853 -1.27155,4.0063 -1.00375,7.28418 0.59511,7.28418 1.59886,0 4.6453,4.60525 6.76987,10.23389 3.71605,9.84494 3.58178,10.08413 -3.53291,6.29381 -6.67692,-3.55711 -6.93855,-3.38581 -2.69175,1.76229 2.58721,3.1363 3.22038,5.70236 1.40703,5.70236 -1.81335,0 -5.08693,-3.92848 -7.27464,-8.72997 z m 283.5247,-13.83426 c -0.22324,-1.72802 -0.12078,-4.606 0.22768,-6.39552 0.34847,-1.78951 -0.5237,-11.0437 -1.93816,-20.56487 -2.39029,-16.0899 -2.74046,-16.58578 -4.96338,-7.02877 -2.24302,9.64344 -2.41685,9.73929 -2.79717,1.54236 -0.22304,-4.80704 -2.19099,-10.52554 -4.37323,-12.70778 -3.0053,-3.0053 -2.98743,-5.14889 0.0737,-8.83729 2.86317,-3.44991 3.0454,-7.48922 0.62507,-13.855176 -1.87898,-4.942082 -2.62905,-8.985603 -1.66682,-8.985603 0.96222,0 0.0986,-3.084731 -1.91917,-6.854958 -2.92814,-5.471281 -2.60656,-6.854957 1.59315,-6.854957 2.89399,0 5.26181,-2.159312 5.26181,-4.798471 0,-6.631069 23.82873,-6.631069 24.42079,0 0.23563,2.639159 0.81402,6.340836 1.2853,8.225949 0.47128,1.885114 1.2527,8.440167 1.7365,14.566785 l 0.87963,11.139311 2.52509,-11.996181 2.52508,-11.996175 0.4512,11.139306 c 0.38226,9.437326 1.74398,11.13931 8.91232,11.13931 6.48357,0 7.9496,1.33303 6.2725,5.70347 -1.60121,4.17268 -0.88239,5.02439 2.67818,3.17331 2.67675,-1.3916 2.12234,-0.28466 -1.23201,2.45986 -4.93294,4.03612 -5.17672,5.34388 -1.27525,6.84102 5.24229,2.01165 4.6018,22.76335 -0.80813,26.18346 -1.66154,1.05041 -3.79167,4.99457 -4.73363,8.7648 -1.52165,6.09049 -1.75698,5.97237 -2.11023,-1.05915 -0.22194,-4.41763 -1.93657,-6.96297 -3.88098,-5.76126 -1.91587,1.18407 -2.59602,3.58864 -1.51146,5.3435 1.08456,1.75486 -1.20383,3.19065 -5.08531,3.19065 -10.34788,0 -11.93172,-1.01449 -13.05282,-8.36058 -1.88144,-12.32833 -4.93503,-10.60088 -3.85118,2.17865 0.59097,6.96806 -0.0365,13.78018 -1.39433,15.13803 -1.35785,1.35785 -2.65147,1.05499 -2.87471,-0.67303 z m -79.62575,-49.41282 c 1.35236,-6.7618 0.67637,-10.28244 -1.97431,-10.28244 -2.21695,0 -6.35208,-5.555564 -9.18918,-12.345703 -3.76907,-9.020671 -6.79902,-11.916667 -11.25003,-10.7527 -3.35042,0.876154 -6.23551,-0.12333 -6.41131,-2.221077 -0.1758,-2.097747 -1.46035,-9.983547 -2.85457,-17.524 -2.21447,-11.97666 -1.88143,-13.172032 2.63435,-9.455303 2.84312,2.340036 6.31027,3.113644 7.70478,1.719128 1.39452,-1.394516 4.72293,0.456023 7.39647,4.112308 4.81002,6.578091 4.86372,6.578034 5.12174,-0.0054 0.458,-11.685759 9.48167,16.413021 9.76093,30.394496 0.14341,7.180429 1.44591,12.322856 2.89444,11.427616 1.44853,-0.89524 2.05771,4.412015 1.35373,11.793895 -0.70397,7.38188 -2.62176,13.42161 -4.26174,13.42161 -1.63998,0 -2.05636,-4.6271 -0.9253,-10.28244 z m -13.70764,-368.3442 c -1.06191,-2.7673 -0.21744,-6.09034 1.87661,-7.38453 2.49432,-1.54158 2.8603,-0.69291 1.06123,2.46084 -2.01814,3.53774 -1.68836,3.844 1.24397,1.15526 2.19457,-2.01227 5.35556,-8.41968 7.02443,-14.23869 2.57654,-8.98387 1.63633,-12.25459 -6.23215,-21.67976 -7.74897,-9.28202 -11.06214,-10.83619 -20.23152,-9.49041 -8.92085,1.3093 -10.96505,0.44203 -10.96505,-4.65201 0,-3.44374 1.92795,-6.36975 4.28435,-6.50225 2.35639,-0.13249 1.19961,-1.56645 -2.57061,-3.18657 -6.00408,-2.58005 -6.09673,-2.97558 -0.74643,-3.18658 3.3597,-0.1325 7.50344,-3.71122 9.20832,-7.95273 1.70487,-4.2415 3.19754,-5.69284 3.31703,-3.2252 0.11949,2.46765 1.75962,3.53339 3.64473,2.36833 1.88511,-1.16506 3.42748,-0.64992 3.42748,1.14476 0,1.79468 -2.31355,4.15085 -5.14122,5.23593 -2.82767,1.08507 -5.14122,3.67381 -5.14122,5.75274 0,2.32123 1.80026,1.9796 4.66515,-0.88528 2.94289,-2.94289 9.8338,-4.17223 18.66572,-3.32997 l 14.00059,1.33517 -6.78592,7.28383 c -5.03056,5.39966 -5.64755,7.7493 -2.38521,9.08324 2.4204,0.98968 4.61217,4.48195 4.87061,7.76061 0.26297,3.33615 -1.10221,4.98959 -3.10018,3.75478 -2.07381,-1.28169 -2.54509,-0.54798 -1.12448,1.75062 3.47525,5.62308 8.89599,4.90152 8.89599,-1.18416 0,-2.82767 1.92796,-5.16484 4.28435,-5.19371 2.84619,-0.0349 2.55856,-1.14814 -0.85687,-3.3165 -3.50387,-2.22452 1.92567,-3.02648 17.04855,-2.51813 20.63544,0.69365 22.16264,1.28609 21.80257,8.45773 -0.21296,4.2415 -0.55857,12.33892 -0.76802,17.99426 -0.22431,6.05632 -2.07768,9.93026 -4.50939,9.42557 -2.2707,-0.47128 -4.19866,1.41383 -4.28435,4.18914 -0.0933,3.02024 -3.25177,4.89312 -7.86762,4.66518 -12.37243,-0.61099 -13.42475,-1.66209 -4.28435,-4.27941 l 8.5687,-2.45361 -9.32184,-1.85083 c -5.12702,-1.01796 -8.6062,-0.69289 -7.73152,0.72237 1.57007,2.54043 -5.89624,6.84893 -15.09879,8.71289 -2.60277,0.52718 -6.38156,2.60777 -8.39732,4.62352 -5.00341,5.00342 -8.05672,4.60017 -10.34632,-1.36644 z"
       id="path4179" /><path
       style="fill:#dbdbdb;fill-opacity:1"
       d="m 848.21207,123.8305 c -6.50624,-2.38462 -8.58994,-5.12528 -7.38882,-9.71839 1.08083,-4.13308 -0.86752,-7.75675 -5.50507,-10.23869 -5.93392,-3.17574 -7.13621,-6.939287 -6.93706,-21.715199 0.16973,-12.593518 1.05556,-15.848614 2.99859,-11.018715 1.51673,3.770227 2.17738,7.867893 1.46811,9.105924 -0.70927,1.238032 1.71085,1.466334 5.37806,0.507338 5.14801,-1.346236 7.8433,1.070099 11.82601,10.602079 2.8371,6.790139 6.97223,12.345703 9.18918,12.345703 2.62918,0 3.33247,3.49168 2.02251,10.04145 -1.26539,6.32695 -0.47296,10.66443 2.14218,11.72558 7.96652,3.2326 -6.01846,1.72575 -15.19369,-1.63708 z m -44.06421,-2.65526 c -8.29378,-2.32966 -8.34876,-2.53529 -1.71374,-6.40908 3.77023,-2.20121 4.927,-4.0491 2.57061,-4.10642 -2.35639,-0.0573 -4.28435,-3.06043 -4.28435,-6.67356 0,-3.61314 -1.92795,-7.347284 -4.28434,-8.298109 -2.63795,-1.064435 -2.05713,-1.832755 1.51146,-1.999362 3.18769,-0.148825 6.76459,1.296934 7.94866,3.212797 1.18406,1.915863 3.41388,2.704028 4.95514,1.751477 1.54126,-0.95255 4.70827,0.564656 7.0378,3.371567 2.32953,2.80692 6.3602,5.10348 8.95705,5.10348 8.16564,0 5.12714,10.2979 -4.07028,13.79475 -4.83551,1.83846 -9.07701,3.1889 -9.42557,3.001 -0.34856,-0.18791 -4.48965,-1.42475 -9.20244,-2.74854 z m -99.93234,-249.68637 c -1.97189,-9.46661 -0.86747,-20.83088 1.97466,-20.31883 1.86473,0.33595 3.46053,-1.1886 3.54622,-3.3879 0.0857,-2.1993 1.55985,-5.28403 3.27592,-6.85496 1.79474,-1.64295 2.13497,-1.13691 0.80096,1.19129 -1.27554,2.22613 -1.07158,4.81856 0.45324,5.76095 3.79922,2.34805 5.15228,-19.06849 1.36091,-21.54079 -1.668,-1.08768 -3.98999,-8.14706 -5.16,-15.68751 -1.47633,-9.51473 -1.17693,-11.61232 0.97845,-6.85496 2.4871,5.48951 3.15372,5.7206 3.34663,1.16015 0.24568,-5.80782 5.43859,-6.501 13.05469,-1.74262 2.81816,1.76073 3.62116,1.02633 2.38893,-2.18482 -1.36029,-3.54487 0.87291,-4.72703 8.35952,-4.42518 5.61862,0.22654 11.48425,1.68046 13.03472,3.23093 1.55048,1.55048 0.5055,2.30493 -2.32217,1.67656 -3.17565,-0.7057 -4.62832,0.82307 -3.79967,3.99872 2.40256,9.20737 0.80998,18.17447 -3.74046,21.06086 -3.48429,2.21013 -3.33488,2.84076 0.68517,2.89182 2.82767,0.0359 -0.0123,3.20725 -6.31108,7.04741 -7.53764,4.59546 -10.77293,8.7525 -9.46482,12.16138 1.28695,3.35375 0.58794,4.31431 -1.98321,2.72525 -2.67588,-1.65378 -3.23472,-0.53612 -1.71374,3.42748 1.41852,3.69661 0.91311,5.05096 -1.36051,3.64578 -1.9896,-1.22964 -3.33156,-0.15297 -2.98213,2.3926 1.35235,9.85164 -0.43018,13.197 -7.03182,13.197 -3.77022,0 -7.09591,-1.15678 -7.39041,-2.57061 z"
       id="path4178" /><path
       style="fill:#d5d5d5;fill-opacity:1"
       d="m 571.42996,121.86049 c 1.37048,-8.13256 -1.30334,-11.35216 -9.77622,-11.77174 -8.08147,-0.4002 -8.32585,-0.67858 -1.71374,-1.95212 4.2415,-0.81695 7.71182,-2.92046 7.71182,-4.67446 0,-1.754 1.15678,-3.00645 2.57061,-2.78321 1.41384,0.22324 3.72739,0.0304 5.14122,-0.42843 4.33348,-1.406484 9.24941,-2.527271 13.05533,-2.976498 1.99636,-0.235639 2.52924,-2.209109 1.18416,-4.385488 -1.49931,-2.425933 -0.94188,-3.027709 1.44063,-1.555239 2.13742,1.320999 6.90922,0.783954 10.604,-1.193433 4.12387,-2.207028 7.48765,-2.349577 8.7116,-0.369179 1.09661,1.774338 5.04612,2.638251 8.77671,1.919806 7.4225,-1.429444 9.38671,3.533185 2.49854,6.312624 -2.3564,0.950824 -0.72301,1.850538 3.62975,1.999367 4.43964,0.15179 6.96896,1.79987 5.76126,3.75397 -1.18407,1.91587 -3.58864,2.59602 -5.3435,1.51146 -1.75485,-1.08456 -3.19065,-0.506 -3.19065,1.28568 0,1.79168 -5.78387,5.53104 -12.85304,8.30969 -16.42117,6.4546 -38.80791,10.55433 -38.20848,6.9972 z M 701.3235,-142.18176 c 0,-2.23113 3.47032,-7.31493 7.71183,-11.29734 4.93431,-4.6329 5.86015,-6.84127 2.5706,-6.13161 -5.85132,1.26233 -5.74889,2.90073 -2.01709,-32.26474 1.9234,-18.12465 4.04422,-25.83123 6.7,-24.34639 2.25662,1.26166 2.08951,0.23728 -0.39856,-2.44328 -2.35639,-2.53869 -4.26073,-7.77765 -4.23186,-11.64213 0.0423,-5.66755 0.66911,-6.0513 3.24111,-1.98438 6.0731,9.60296 8.17477,-0.0179 2.4192,-11.07437 -3.99313,-7.67085 -5.12677,-8.58742 -3.66586,-2.96393 1.28942,4.96336 0.79525,7.32544 -1.26602,6.0515 -1.85952,-1.14925 -4.11087,-4.88073 -5.00298,-8.29219 -1.18547,-4.53323 0.47439,-6.37614 6.16717,-6.84729 8.18783,-0.67765 23.7575,5.94692 24.51253,10.42956 2.27838,13.52671 5.38078,23.07842 7.49587,23.07842 1.40884,0 1.85026,4.84619 0.98093,10.76931 -0.96772,6.59352 -0.26503,9.95624 1.81223,8.67242 2.03794,-1.25952 2.73563,1.34107 1.7471,6.51221 -1.8007,9.41978 -4.21159,9.08288 -5.65808,-0.79065 -0.55572,-3.79331 -3.94847,-6.47099 -8.50215,-6.7102 -5.22147,-0.27428 -6.99751,1.11314 -5.71229,4.46237 1.24026,3.23208 0.44293,3.97186 -2.37998,2.20816 -8.92661,-5.57716 -12.69866,-3.51669 -14.88361,8.13009 -1.44824,7.71979 -0.83063,12.93841 1.71759,14.5133 2.18844,1.35253 3.6142,7.24639 3.16836,13.09746 -0.44584,5.85108 -1.9275,9.94805 -3.29259,9.10437 -1.36509,-0.84367 -4.90107,1.91977 -7.85772,6.14099 -2.95665,4.22121 -5.37573,5.84946 -5.37573,3.61834 z"
       id="path4177" /><path
       style="fill:#d0d0d0;fill-opacity:1"
       d="m 588.2167,93.688168 c 4.71278,-3.83492 10.49665,-7.006877 12.85304,-7.048794 2.35639,-0.04192 4.28435,-1.618579 4.28435,-3.503692 0,-1.885113 1.5564,-3.427479 3.45868,-3.427479 1.90227,0 8.1327,-4.466756 13.84541,-9.926124 6.78751,-6.486511 12.71517,-9.317224 17.1062,-8.168945 3.71164,0.970617 6.71946,0.044 6.71946,-2.070052 0,-2.104977 -2.31355,-3.82723 -5.14122,-3.82723 -5.50959,0 -7.11147,-5.530986 -2.15076,-7.426204 1.64475,-0.628371 7.06901,-9.239912 12.05391,-19.136757 4.9849,-9.896845 10.57984,-17.994263 12.4332,-17.994263 3.70602,0 4.47453,21.234312 1.20945,33.417918 -1.13668,4.241505 -4.00103,7.711827 -6.36523,7.711827 -2.85278,0 -4.02586,4.515558 -3.48781,13.425791 0.65407,10.83164 -0.20242,13.037015 -4.43268,11.413715 -3.57694,-1.372603 -4.4059,-0.657007 -2.60829,2.251591 3.97079,6.42487 -11.38686,20.94268 -21.81603,20.62302 -4.85546,-0.148829 -6.90016,-1.048543 -4.54376,-1.999367 6.88817,-2.779439 4.92396,-7.742068 -2.49854,-6.312624 -3.73059,0.718445 -7.67044,-0.129823 -8.75522,-1.885041 -1.10717,-1.791435 -8.28025,-0.110527 -16.3526,3.831994 -14.36846,7.017538 -14.37323,7.017578 -5.81156,0.05072 z M 807.97628,-49.474057 c -4.49227,-4.266835 -9.74327,-6.784167 -11.66889,-5.594072 -2.16679,1.339152 -2.43187,0.433739 -0.69554,-2.375705 2.01934,-3.267358 1.25615,-3.944943 -2.72335,-2.417867 -3.88233,1.489789 -4.96132,0.642499 -3.62304,-2.845018 1.22288,-3.186775 -0.27268,-4.966665 -4.17328,-4.966665 -3.34354,0 -5.07264,-1.006517 -3.84246,-2.236706 1.23019,-1.230188 6.91329,-2.103739 12.62911,-1.941226 5.71582,0.162514 9.59133,-1.000677 8.61225,-2.58487 -0.97909,-1.584192 1.54789,-2.010047 5.61549,-0.946344 5.50969,1.440815 6.68691,0.787236 4.61638,-2.562956 -1.81516,-2.936979 -1.44151,-3.670173 1.07712,-2.113578 2.12102,1.310861 8.57408,-0.05623 14.34014,-3.037974 5.76607,-2.981747 12.36642,-4.291074 14.66745,-2.909616 2.65369,1.593183 2.4634,0.390957 -0.52034,-3.287408 -4.63133,-5.709535 -2.37023,-7.676455 7.1723,-6.239149 1.35755,0.204475 4.13408,-2.740806 6.17006,-6.545069 2.03598,-3.80426 5.24165,-5.96515 7.12372,-4.80197 2.20703,1.36402 1.99698,3.83186 -0.59164,6.950958 -3.21837,3.877895 -2.70807,4.836078 2.57555,4.836078 3.62403,0 8.53135,1.927957 10.90518,4.284348 3.46059,3.435185 3.86344,3.095519 2.03253,-1.713739 -1.55664,-4.088817 -0.61949,-5.998088 2.94409,-5.998088 2.87518,0 7.54833,-0.890551 10.38479,-1.979007 6.28407,-2.41142 5.64344,8.051081 -0.73433,11.992759 -2.32323,1.43584 -3.75706,4.712715 -3.18627,7.281944 0.57079,2.56923 -0.50457,4.814761 -2.38969,4.990068 -1.88511,0.175307 -8.82575,3.718789 -15.42365,7.874403 -6.5979,4.155614 -13.92413,6.829835 -16.28052,5.942712 -2.3564,-0.887122 -4.28435,0.556335 -4.28435,3.207684 0,2.651348 -2.91527,4.601032 -6.47838,4.332632 -4.1766,-0.314614 -5.79634,-2.265391 -4.55876,-5.490465 1.05579,-2.751355 0.50074,-4.291124 -1.23345,-3.421709 -1.73419,0.869415 -7.34193,3.668437 -12.46166,6.220049 -5.11972,2.551611 -8.48347,5.974361 -7.47499,7.606111 1.00848,1.63175 3.01232,2.238323 4.45299,1.34794 1.44067,-0.890383 2.6194,0.369763 2.6194,2.800324 0,6.582142 -6.39059,5.08272 -15.59396,-3.658809 z"
       id="path4176" /><path
       style="fill:#cacaca;fill-opacity:1"
       d="m 874.41118,-91.665735 c -1.16507,-1.885114 -5.30086,-3.427479 -9.19065,-3.427479 -6.21165,0 -6.49988,-0.705756 -2.36833,-5.799156 4.04812,-4.99055 3.98716,-5.44631 -0.4372,-3.26866 -2.82767,1.39177 -0.59438,-1.0113 4.96287,-5.34015 16.70856,-13.01524 32.70561,-31.48546 32.72302,-37.78207 0.009,-3.25549 3.85905,-8.43689 8.55565,-11.51422 4.6966,-3.07733 7.75617,-6.86222 6.79905,-8.41088 -0.95712,-1.54865 0.0656,-3.9318 2.27274,-5.29588 2.50627,-1.54896 3.09475,-0.99444 1.56737,1.47691 -1.34508,2.17638 -0.62335,3.95705 1.60384,3.95705 3.02456,0 2.97368,1.29621 -0.20105,5.12152 -2.33777,2.81684 -3.51169,8.9863 -2.60871,13.70992 1.12894,5.90567 0.12111,8.58839 -3.22643,8.58839 -2.67751,0 -3.87321,1.60993 -2.65711,3.57762 1.2161,1.96769 0.34709,5.82361 -1.93114,8.5687 -2.27822,2.74509 -2.99333,4.99108 -1.58913,4.99108 1.4042,0 0.83525,2.06986 -1.26433,4.5997 -2.09958,2.52984 -3.1651,5.25203 -2.36783,6.0493 0.79727,0.79727 -1.6635,5.28246 -5.46838,9.96708 -3.80488,4.684615 -5.75993,6.327421 -4.34454,3.650675 1.91614,-3.623775 1.0451,-4.280335 -3.41038,-2.570605 -3.29109,1.262907 -8.33622,2.296197 -11.2114,2.296197 -3.2386,0 -4.47696,1.956134 -3.25473,5.141218 2.22594,5.800693 0.27306,6.933944 -2.9532,1.71374 z"
       id="path4175" /><path
       style="fill:#c4c4c4;fill-opacity:1"
       d="m 607.06783,119.12779 c 23.52574,-9.61216 58.72285,-42.532278 55.22364,-51.651077 -1.29457,-3.373585 -0.62388,-4.39958 1.86889,-2.858961 2.73798,1.692161 3.2025,-0.536381 1.57037,-7.533812 -1.45564,-6.240735 -1.181,-8.235424 0.73834,-5.362696 4.17479,6.248483 7.32688,-6.126961 7.3878,-29.005254 0.0382,-14.3344423 -1.37558,-18.5964606 -7.66503,-23.10782355 -7.52947,-5.40081335 -7.47953,-5.43392515 2.11177,-1.40027765 9.79825,4.120678 9.81962,4.1980008 8.27966,29.9627812 -1.80634,30.221576 -9.84897,48.424459 -30.53544,69.110936 -13.41821,13.418204 -43.90224,30.394244 -54.40365,30.296464 -2.82767,-0.0263 4.11297,-3.82895 15.42365,-8.45028 z"
       id="path4174" /><path
       style="fill:#333333;fill-opacity:1"
       d="m 681.07554,178.65565 c -9.352,-10.03819 -9.05761,-17.14896 1.10523,-26.69645 9.86897,-9.27142 20.01155,-7.36525 28.32548,5.32342 5.22404,7.97289 5.14322,9.08229 -1.29205,17.73431 -8.91331,11.98367 -19.13295,13.30522 -28.13866,3.63872 z M 484.5129,160.00984 c -4.98692,-5.11013 1.40223,-87.914824 8.43386,-109.304386 7.80903,-23.754341 19.93915,-45.5407668 32.16044,-57.7620493 l 8.61738,-8.6173837 -20.95317,-11.167923 C 462.22474,-53.782995 428.81069,-117.86152 431.26182,-183.15384 l 1.00459,-26.75991 47.9847,-2.68078 c 53.31143,-2.97837 83.77999,0.19098 105.5946,10.98399 7.69621,3.80779 14.55698,6.35938 15.24615,5.67021 0.68917,-0.68917 2.62224,-10.93969 4.2957,-22.77893 4.89762,-34.64906 19.92847,-60.62365 52.33957,-90.44719 16.9879,-15.63166 31.03712,-25.85028 35.54065,-25.85028 4.74033,0 18.59897,10.9017 38.12496,29.99044 33.48374,32.73393 49.87526,60.28513 54.16027,91.03373 1.87893,13.48287 3.31357,16.05233 7.87554,14.10511 29.59763,-12.6334 33.09874,-13.08496 95.93997,-12.37397 34.61813,0.39167 64.49164,1.66983 66.38558,2.84035 5.54928,3.42964 -0.52372,61.75593 -9.31444,89.45787 -9.23536,29.103107 -23.07898,51.86941 -43.5783,71.665995 -14.64851,14.146347 -38.10144,28.608524 -46.39369,28.608524 -6.99989,0 -4.83758,4.289502 9.50274,18.8511331 24.29241,24.6673169 37.49764,70.2705099 37.54845,129.6704479 l 0.0259,30.27357 -59.12401,-1.14 c -58.03575,-1.11901 -59.54053,-1.33735 -81.75321,-11.8623 -13.86838,-6.57121 -31.80741,-19.38057 -46.33652,-33.0866 L 692.6237,90.653287 674.5306,110.80227 c -13.78273,15.34884 -25.09085,23.61652 -47.46667,34.70417 l -29.37357,14.55518 -55.29214,1.30272 c -30.41068,0.7165 -56.45906,0.10697 -57.88531,-1.3545 z m 89.99388,-29.09523 c 61.4602,-9.88024 98.77421,-47.488944 102.08502,-102.891232 l 1.55247,-25.9787346 -10.7584,-4.4562737 c -5.91712,-2.4509504 -14.65196,-9.0835167 -19.41077,-14.7390357 -7.84206,-9.319764 -10.03759,-10.092898 -23.44348,-8.255416 -57.26821,7.849481 -97.49057,46.284045 -107.97231,103.173165 -4.18886,22.734867 -4.94752,51.010437 -1.46216,54.495797 3.41082,3.41082 34.14427,2.71334 59.40963,-1.34827 z m 295.91523,-26.17843 c -0.30894,-15.453862 -3.01254,-36.528534 -6.00801,-46.8326 -11.38533,-39.164144 -52.23196,-75.069719 -93.4279,-82.126283 -22.3337,-3.825601 -22.38725,-3.815327 -29.25543,5.613159 -3.78442,5.195176 -12.88184,12.5072953 -20.21649,16.249154 -13.27371,6.7717423 -13.33572,6.8996737 -13.33572,27.510841 0,37.04962 24.25189,73.158168 62.10654,92.470169 18.12443,9.24639 56.49597,16.66994 81.84757,15.83463 l 18.85113,-0.62113 z m -162.20495,-136.441 c 6.69107,-3.460085 11.2838,-9.510794 13.9345,-18.358044 9.61801,-32.102036 -25.58318,-58.435086 -49.88622,-37.318523 -12.23897,10.634267 -14.45677,28.414351 -5.35885,42.961946 10.70642,17.119574 24.55179,21.380922 41.31057,12.714621 z m 125.80146,-10.671288 c 36.92716,-12.496532 69.64808,-43.382149 81.78683,-77.199442 2.94825,-8.21352 7.36109,-26.22142 9.8063,-40.01756 l 4.44584,-25.08388 -51.91262,1.09153 c -50.70118,1.06607 -52.4434,1.35313 -74.65775,12.30126 -24.05868,11.85708 -37.63181,24.86447 -52.6024,50.40984 -8.84494,15.09275 -8.96843,16.01313 -3.65178,27.217151 3.02651,6.377885 5.50274,17.077039 5.50274,23.775898 0,11.406442 0.81605,12.316507 12.85305,14.3338 18.36108,3.077154 44.99146,11.837242 47.28979,15.556022 2.50836,4.058598 1.89634,4.127634 21.14,-2.384619 z m -249.86155,-3.129063 c 8.13527,-2.83352 22.53358,-6.281396 31.99625,-7.661946 l 17.20484,-2.510091 1.53943,-22.999943 c 1.36679,-20.420647 0.39208,-25.272829 -8.69164,-43.267579 -12.97391,-25.70117 -27.8122,-40.52137 -51.67821,-51.6152 -16.08792,-7.47828 -24.81875,-8.96417 -59.18251,-10.0722 -22.17078,-0.71487 -43.97314,-0.38051 -48.44968,0.74303 l -8.13917,2.0428 4.57514,23.16854 c 11.83349,59.924778 29.81531,86.633454 72.24011,107.29933 23.27508,11.337704 28.51616,11.8634 48.58544,4.873259 z m 118.18606,-73.738569 c 15.0329,5.24049 15.37645,5.05961 24.11176,-12.69487 4.40557,-8.95429 13.11921,-24.37221 19.36365,-34.26205 l 11.35353,-17.98152 -4.01325,-24.30112 c -5.27694,-31.9531 -13.48184,-47.15786 -39.01242,-72.29513 l -21.12621,-20.80075 -24.44591,25.49734 c -27.4209,28.6003 -35.68466,46.49652 -35.97939,77.91796 -0.15194,16.19837 2.31951,24.04631 16.28052,51.69791 l 16.45966,32.60047 13.36112,-4.48195 c 9.84427,-3.30223 16.06852,-3.53815 23.64694,-0.89629 z m -300.67911,258.688 c -5.64213,-5.64213 -7.11569,-20.86225 -2.69319,-27.81745 4.8337,-7.60189 19.65286,-11.09135 28.49244,-6.70911 10.55796,5.23412 13.08295,23.90866 4.51309,33.37825 -7.16802,7.92058 -22.94249,8.51816 -30.31234,1.14831 z M 946.5311,46.48115 c -26.73576,-7.270887 -39.89758,-35.461835 -27.63118,-59.182449 16.31623,-31.552108 60.73362,-32.423031 75.41763,-1.478767 6.46725,13.62877575 6.54725,22.3264078 0.34167,37.178362 -7.48931,17.924452 -29.34847,28.590051 -48.12812,23.482854 z m 24.01407,-33.378944 c 6.4516,-9.8463862 2.45304,-20.6717886 -8.97527,-24.298994 -14.21632,-4.512085 -26.90985,17.8249424 -16.20991,28.524878 6.8296,6.829596 19.3139,4.734824 25.18518,-4.225884 z M 404.50383,26.92503 C 395.50827,17.929469 392.8504,12.41857 392.8504,2.7624704 c 0,-24.7957504 16.05804,-43.1110504 37.60804,-42.8945704 15.22624,0.152956 26.08143,6.109696 34.55292,18.960779 17.38002,26.3651453 -1.99758,59.749779 -34.68085,59.749779 -11.54863,0 -16.33125,-2.157999 -25.82668,-11.653428 z m 34.28795,-16.815306 c 12.85225,-9.39779287 -0.81006,-32.70661 -14.2372,-24.289616 -8.09457,5.0742004 -9.31784,16.3879042 -2.50819,23.1975605 6.73479,6.7347895 8.84068,6.8721245 16.74539,1.0920555 z m 86.08796,-267.251274 c -13.38139,-13.3814 -15.22209,-24.13074 -6.89088,-40.24151 14.75594,-28.53485 54.45986,-20.13858 58.82968,12.44082 1.62484,12.11409 0.52079,15.57688 -7.92376,24.85238 -5.39641,5.92741 -14.79221,11.73084 -20.87955,12.8965 -9.49961,1.81908 -12.77785,0.40944 -23.13549,-9.94819 z m 295.22299,-5.31114 c -11.67378,-12.89938 -2.99623,-34.86177 13.77424,-34.86177 16.03313,0 24.26448,24.34691 11.98763,35.45731 -8.22301,7.44172 -18.70759,7.19935 -25.76187,-0.59554 z"
       id="path4173" /></g><g
     id="g4180"
     transform="matrix(0.76290182,0,0,0.76290182,-219.73916,426.27528)"><g
       id="g4185"
       transform="matrix(0.33418843,0,0,0.33418843,219.1856,-240.82063)"><path
         style="fill:#e0e0e0;fill-opacity:1"
         d="m 545.20131,-47.660881 c 14.50473,-2.049746 13.71444,-2.348808 -13.26465,-5.019602 -22.85693,-2.262723 -29.29065,-1.889216 -31.65169,1.83752 -2.37105,3.742542 -2.97389,3.775164 -3.01588,0.163205 -0.0394,-3.389264 -6.24536,-4.313457 -24.90171,-3.708368 -19.54384,0.633872 -24.84922,-0.23175 -24.84922,-4.054385 0,-3.283683 -4.17165,-4.948281 -12.85997,-5.131462 -7.07299,-0.149124 -12.51685,-1.69149 -12.09747,-3.427479 0.41938,-1.735989 2.76045,-2.697536 5.20238,-2.136771 2.44193,0.560766 4.02988,-0.911492 3.52877,-3.271684 -0.5011,-2.360192 2.55922,-4.554161 6.80073,-4.875487 4.2415,-0.321326 8.09741,-0.848534 8.56869,-1.171572 0.47128,-0.323038 11.65343,-0.92908 24.84922,-1.34676 16.8725,-0.534057 23.73807,-2.012582 23.13548,-4.98231 -0.47127,-2.322592 1.07109,-4.337507 3.42748,-4.47759 17.72188,-1.053532 28.61386,-7.363912 24.42079,-14.148444 -0.92943,-1.50384 -0.1475,-2.73425 1.73761,-2.73425 5.93745,0 8.34669,7.489019 3.41428,10.613153 -2.85489,1.808262 10.53023,3.012553 33.83568,3.044275 28.5627,0.03888 38.57274,-1.058231 38.61162,-4.231865 0.0411,-3.353833 0.63171,-3.372633 2.71939,-0.08655 1.4668,2.308786 6.45587,4.776029 11.08683,5.482763 4.63095,0.706734 8.41991,3.444823 8.41991,6.084644 0,2.692452 3.38575,4.799672 7.71182,4.799672 4.24151,0 7.71183,1.156774 7.71183,2.570609 0,10.396643 -0.27449,10.876995 -3.42748,5.998088 -2.74264,-4.243941 -3.33167,-3.922599 -3.37499,1.841227 -0.0651,8.665001 12.56295,10.558829 14.76629,2.214493 1.07353,-4.065611 1.64085,-3.491987 1.92102,1.942368 0.73644,14.284202 1.76612,13.050567 -11.80086,14.13835 -2.93892,0.235639 -4.31281,2.096115 -3.05309,4.134392 2.32565,3.76297 -30.90194,1.235305 -37.54708,-2.856254 -1.7051,-1.049869 -1.99966,-0.128179 -0.65459,2.048201 1.53338,2.481064 -0.0802,3.957053 -4.32602,3.957053 -3.72439,0 -7.54956,-1.927957 -8.50038,-4.284348 -1.38302,-3.427479 -1.78289,-3.427479 -1.99937,0 -0.14882,2.356391 -3.22679,4.284348 -6.83992,4.284348 -3.61314,0 -7.34728,-1.927957 -8.29811,-4.284348 -1.38302,-3.427479 -1.78289,-3.427479 -1.99936,0 -0.18102,2.866124 -5.65984,4.113941 -16.55111,3.769562 l -16.28053,-0.514785 z M 227.37869,-115.89998 c -6.04284,-8.17337 -7.0723,-13.86538 -6.35396,-35.13165 0.79597,-23.56434 6.41593,-40.80166 13.30276,-40.80166 1.54291,0 1.84555,-1.55289 0.67254,-3.45087 -1.17302,-1.89798 1.0495,-7.91994 4.93893,-13.38215 7.64314,-10.7338 9.10768,-15.67716 3.64422,-12.30055 -1.88512,1.16506 -3.42748,0.48491 -3.42748,-1.51146 0,-1.99637 2.20961,-3.62976 4.91025,-3.62976 2.70063,0 5.76692,-2.69914 6.81397,-5.99809 2.83121,-8.92038 2.39007,-12.85304 -1.44178,-12.85304 -1.88512,0 -3.42748,-1.15678 -3.42748,-2.57061 0,-1.41384 0,-3.65027 0,-4.96984 0,-1.31958 1.85084,-0.5484 4.11297,1.71373 5.26601,5.26601 16.4519,5.34369 16.4519,0.11425 0,-5.92903 3.79583,-1.05175 4.86827,6.25527 0.93604,6.37765 1.96119,6.825 17.41034,7.59746 5.59624,0.27981 8.66256,2.50916 8.83929,6.42652 0.16165,3.58322 0.9666,4.27318 1.99936,1.71374 0.95083,-2.35639 3.0942,-4.28435 4.76306,-4.28435 1.66885,0 2.15912,2.28064 1.08947,5.06809 -1.16757,3.04264 -8.77503,5.97415 -19.03543,7.33524 -9.45712,1.25453 -17.88949,4.34896 -18.8792,6.92809 -0.98371,2.56351 -4.75669,4.66094 -8.38439,4.66094 -3.62771,0 -7.60861,2.69913 -8.84646,5.99808 -1.23785,3.29895 -4.46945,7.66256 -7.18135,9.69691 -3.80355,2.85326 -4.07555,5.29668 -1.18986,10.68865 2.05746,3.84441 2.76687,7.96381 1.57645,9.15423 -2.18687,2.18686 6.64942,3.48655 16.11549,2.37035 8.2768,-0.97596 41.12975,-18.1762 41.12975,-21.53357 0,-1.68811 1.44278,-2.17761 3.20617,-1.08777 3.77818,2.33504 -13.01962,20.16398 -20.00045,21.22818 -2.63896,0.4023 -5.72369,2.10448 -6.85496,3.78262 -1.13127,1.67814 -6.29836,2.79005 -11.48242,2.47092 -5.18406,-0.31914 -9.42557,0.67552 -9.42557,2.21035 0,1.53483 -2.11467,1.97913 -4.69928,0.98732 -5.25146,-2.01517 -15.86559,7.06582 -15.86559,13.57393 0,2.31599 1.92796,6.42423 4.28435,9.1294 2.35639,2.70518 0.23137,1.37954 -4.72228,-2.94587 l -9.00662,-7.86436 -1.53985,10.49161 c -1.00927,6.87662 0.36293,12.2136 3.98248,15.48925 4.47177,4.04689 8.97221,18.98413 5.71973,18.98413 -0.47088,0 -4.10119,-4.38915 -8.06734,-9.75366 z m 643.43309,-34.56475 c 0,-10.12997 -1.29534,-14.06705 -4.28434,-13.02191 -2.3564,0.82394 -3.85799,3.92033 -3.33688,6.88086 0.52111,2.96053 -2.20042,6.38188 -6.04786,7.60301 -3.84743,1.22113 -6.3086,3.33138 -5.46927,4.68945 0.83934,1.35807 -1.41904,2.69107 -5.01861,2.96221 -3.59957,0.27115 -6.19186,-1.3083 -5.76064,-3.50989 0.43122,-2.20159 -5.38543,-7.07047 -12.92588,-10.81972 -11.02656,-5.48261 -12.36824,-7.07358 -6.85496,-8.12863 3.77023,-0.72149 9.71603,-3.85171 13.21289,-6.95604 3.49686,-3.10434 6.83865,-4.87306 7.4262,-3.93051 0.58755,0.94256 2.22505,0.55697 3.63889,-0.85687 1.41383,-1.41383 0.71037,-2.57061 -1.56325,-2.57061 -3.09079,0 -3.01872,-1.21052 0.28562,-4.79749 3.34944,-3.63592 5.57062,-3.85478 9.1739,-0.90394 3.72168,3.04781 5.9431,2.1033 10.22677,-4.34825 3.00979,-4.53299 5.4974,-10.68127 5.52802,-13.66284 0.0306,-2.98158 2.36921,-5.42105 5.19688,-5.42105 2.82767,0 4.72904,2.00774 4.22526,4.46164 -0.66401,3.23435 2.78433,4.0916 12.53602,3.11643 10.18457,-1.01846 13.0255,-0.23378 11.69612,3.23051 -0.96572,2.51664 -3.13661,3.72236 -4.82419,2.67937 -1.68759,-1.04298 -2.95993,3.97857 -2.82743,11.159 0.19237,10.42537 0.83429,11.67441 3.18657,6.20036 2.63025,-6.1209 2.97148,-5.8673 3.18658,2.36833 0.1325,5.07281 -1.40661,10.24151 -3.42024,11.486 -2.01363,1.24449 -2.7495,4.63841 -1.63528,7.54203 1.70907,4.45376 1.17939,4.57681 -3.3872,0.78687 -2.9772,-2.47085 -4.94046,-3.0746 -4.36282,-1.34166 0.57765,1.73293 -0.22332,3.43506 -1.77993,3.78252 -1.5566,0.34745 -5.79811,4.05377 -9.42556,8.23626 l -6.59538,7.60453 z M 571.9823,-211.54129 c -2.1216,-31.30249 -2.0426,-31.91904 3.51346,-27.4221 3.46076,2.80106 4.47042,2.90903 2.91341,0.31157 -1.31054,-2.18628 -1.39197,-6.5571 -0.18096,-9.71295 1.62417,-4.2325 2.88646,-4.63016 4.8113,-1.5157 1.4352,2.3222 8.17366,4.56001 14.97434,4.9729 12.60917,0.76554 14.1228,2.05276 11.12346,9.45961 -1.31813,3.25514 -1.76101,3.23588 -1.9708,-0.0857 -0.14882,-2.35639 -3.52033,-4.28434 -7.49225,-4.28434 -5.0111,0 -6.61776,1.57373 -5.24879,5.14121 1.08508,2.82767 0.64393,5.14122 -0.98033,5.14122 -1.62426,0 -3.8339,2.29505 -4.9103,5.1001 -1.0764,2.80506 -0.85583,4.93596 0.49017,4.73534 6.69858,-0.99844 8.74817,0.91002 4.161,3.87448 -3.75741,2.42822 -1.15089,3.33663 9.68388,3.37499 14.04991,0.0497 14.7926,-0.44037 14.2036,-9.37308 -1.14399,-17.34957 0.93495,-19.87613 3.5253,-4.28435 1.40933,8.48301 2.32063,15.73314 2.02511,16.1114 -0.29553,0.37826 -9.35349,1.1478 -20.12882,1.71009 -10.77533,0.56229 -19.59151,2.18076 -19.59151,3.5966 0,1.41585 -2.31355,2.57426 -5.14122,2.57426 -3.16874,0 -5.38631,-3.6162 -5.78005,-9.42556 z m 82.3342,-7.29065 c 2.5174,-1.59573 4.79291,-4.27125 5.0567,-5.9456 0.26378,-1.67435 5.91592,-2.88365 12.5603,-2.68733 8.50564,0.25132 12.7623,-1.39817 14.38394,-5.5739 1.6113,-4.14911 4.88475,-5.43737 10.89624,-4.2882 5.59458,1.06947 7.95186,3.31341 6.75562,6.43077 -1.42083,3.70261 2.32521,4.88538 16.52359,5.21713 l 18.36096,0.429 -15.42365,3.03254 c -17.0397,3.35028 -16.42436,3.31478 -36.51858,2.10675 -7.83198,-0.47084 -13.52482,0.30069 -12.65076,1.71453 0.87406,1.41383 -4.2857,2.54699 -11.46613,2.51812 -8.46036,-0.034 -11.44437,-1.07364 -8.47823,-2.95381 z"
         id="path4185" /><path
         style="fill:#dbdbdb;fill-opacity:1"
         d="m 248.7244,-171.50183 c -3.77023,-1.49175 -5.64392,-2.82067 -4.16376,-2.95317 1.48016,-0.13249 0.89929,-3.58912 -1.29083,-7.68139 -3.1702,-5.92357 -2.97679,-8.19458 0.94868,-11.1393 2.7119,-2.03435 5.9435,-6.39796 7.18135,-9.69691 1.23785,-3.29895 5.21875,-5.99808 8.84646,-5.99808 3.6277,0 7.48362,-2.31355 8.5687,-5.14122 1.08507,-2.82767 5.4916,-5.08104 9.79226,-5.00748 6.45959,0.11049 5.2817,1.66379 -6.77327,8.93202 -15.62087,9.4182 -21.5686,21.88238 -14.50396,30.39475 5.96156,7.18325 11.29237,6.35882 20.20118,-3.12417 7.33654,-7.80939 24.31911,-14.09546 24.31911,-9.00168 0,2.27511 -30.24356,18.09487 -41.12975,21.51409 -2.82767,0.88814 -8.22595,0.39428 -11.99617,-1.09746 z"
         id="path4184" /><path
         style="fill:#d5d5d5;fill-opacity:1"
         d="m 257.33003,-179.79261 c -7.31027,-8.80833 -1.11073,-21.04246 15.63652,-30.857 18.53798,-10.86399 23.97386,-9.41899 7.65936,2.03604 -15.09345,10.5977 -20.29586,17.6266 -16.16157,21.83567 2.12884,2.16734 5.64482,1.86623 10.00519,-0.85687 10.70881,-6.68776 12.09602,-4.89862 3.38844,4.37018 -9.22551,9.82009 -14.51675,10.71502 -20.52794,3.47198 z"
         id="path4183" /><path
         style="fill:#cacaca;fill-opacity:1"
         d="m 262.94052,-187.58674 c -2.46509,-3.98861 4.9183,-12.27961 19.99743,-22.45566 17.58494,-11.86708 21.11835,-11.65321 12.2908,0.74395 -9.3664,13.15389 -9.04557,14.13221 4.05096,12.35296 6.21785,-0.84474 4.06296,0.32884 -4.87742,2.65629 -8.8092,2.29331 -17.16367,5.32642 -18.56551,6.74026 -3.30059,3.32884 -10.82919,3.30678 -12.89626,-0.0378 z"
         id="path4182" /><path
         style="fill:#818181;fill-opacity:1"
         d="m 652.52616,-153.60035 c -33.52916,-6.77727 -39.4198,-10.81311 -15.78261,-10.81311 9.50411,0 21.71451,-0.56309 27.13421,-1.25132 5.4197,-0.68822 7.15486,-0.58095 3.85591,0.23839 -3.29895,0.81933 -5.99809,3.58499 -5.99809,6.1459 0,3.12574 6.47789,5.38677 19.708,6.87884 25.27027,2.84993 30.23508,4.59929 12.85305,4.5288 -7.54045,-0.0306 -26.33716,-2.60795 -41.77047,-5.7275 z"
         id="path4181" /><path
         style="fill:#333333;fill-opacity:1"
         d="m 779.9836,-82.415022 c -11.31068,-3.711052 -49.86982,-14.648728 -85.68697,-24.305948 -35.81715,-9.65722 -78.2322,-21.1105 -94.25567,-25.45174 -16.02346,-4.34124 -35.26066,-7.9731 -42.74933,-8.07078 -25.68599,-0.33507 -197.13964,39.53796 -234.87644,54.62255 -21.63966,8.650053 -42.46728,7.980387 -55.28971,-1.777718 -9.92783,-7.555258 -22.69577,-22.835932 -25.76595,-30.836712 -1.99014,-5.18623 -0.60735,-5.65987 11.11467,-3.80705 43.28909,6.84241 42.50294,6.8723 62.54144,-2.37861 29.42942,-13.58629 81.94558,-33.02346 105.93956,-39.21012 11.78196,-3.03789 21.42174,-6.65062 21.42174,-8.02828 0,-1.37767 -5.01268,-4.07895 -11.1393,-6.00286 -15.03092,-4.72007 -86.02903,-20.02979 -106.25184,-22.91168 -8.95429,-1.27605 -16.28053,-3.41848 -16.28053,-4.76095 0,-1.34247 3.82261,-6.032 8.49468,-10.42118 8.15779,-7.66385 9.95882,-7.89225 45.41409,-5.75946 37.18248,2.2367 94.46002,10.52298 148.31248,21.4562 38.29022,7.77376 55.21384,7.58823 104.5381,-1.146 22.62136,-4.00573 58.09576,-9.00627 78.83201,-11.11231 20.73625,-2.10603 48.74042,-5.48763 62.23149,-7.51466 50.71448,-7.61985 89.22621,13.70083 77.92844,43.14237 -3.53996,9.22497 -14.03264,6.01003 -21.45777,-6.57463 -6.11175,-10.35865 -8.84819,-11.9932 -20.04655,-11.97433 -7.13276,0.012 -30.70584,4.82174 -52.38465,10.68827 -54.08959,14.63725 -80.77061,19.86306 -102.16977,20.01121 -28.22664,0.19542 -18.29355,5.41749 22.37979,11.76561 20.32057,3.17154 46.64989,7.29836 58.50958,9.1707 11.8597,1.87233 29.5969,7.01864 39.41601,11.43623 29.693,13.35879 70.47268,23.23782 65.99118,15.9866 -2.40694,-3.89451 15.23638,-11.81963 27.67085,-12.42933 8.86862,-0.43486 10.40192,0.5662 9.01145,5.88338 -1.87264,7.16097 -50.36449,47.531192 -56.7472,47.242915 -2.24455,-0.101376 -13.3352,-3.220636 -24.64588,-6.931687 z"
         id="path4180"
         sodipodi:nodetypes="sssssssssssssssssssssssssssssssss" /></g></g></g><text
   xml:space="preserve"
   style="font-size:135.366px;line-height:135.366px;font-family:'Snap ITC';-inkscape-font-specification:'Snap ITC';text-align:center;text-anchor:middle;fill:#333333;fill-opacity:1;stroke:none;stroke-width:10.3604"
   x="574.77509"
   y="151.67674"
   id="text4188"><tspan
     sodipodi:role="line"
     x="574.77509"
     y="151.67674"
     style="font-style:normal;font-variant:normal;font-weight:normal;font-stretch:normal;line-height:135.366px;font-family:Taxicab;-inkscape-font-specification:Taxicab;fill:#333333;fill-opacity:1;stroke-width:10.3604"
     id="tspan4189">Vanilla Boot</tspan></text><text
   xml:space="preserve"
   style="font-style:normal;font-variant:normal;font-weight:normal;font-stretch:normal;font-size:37.8118px;line-height:37.8118px;font-family:Taxicab;-inkscape-font-specification:Taxicab;text-align:center;text-anchor:middle;fill:#333333;fill-opacity:0.677321;stroke:none;stroke-width:2.89395"
   x="574.92633"
   y="195.31575"
   id="text4197"><tspan
     sodipodi:role="line"
     id="tspan4197"
     style="fill:#333333;fill-opacity:0.677321;stroke-width:2.89395"
     x="574.92633"
     y="195.31575">Minimal Framework, Maximum Control</tspan><tspan
     sodipodi:role="line"
     style="fill:#333333;fill-opacity:0.677321;stroke-width:2.89395"
     x="574.92633"
     y="233.12755"
     id="tspan4198">Pure JavaScript, Pure Freedom</tspan></text><rect
   style="fill:#ece7dd;fill-opacity:1;stroke:none;stroke-width:16.7577"
   id="rect5"
   width="1022.5078"
   height="255.55374"
   x="-15.201152"
   y="337.17218" /><g
   id="g19"
   transform="matrix(1.0699306,0,0,1.0699306,17.49438,338.78786)"><g
     id="g11"
     transform="matrix(0.3438351,0,0,0.3438351,-147.46332,121.28113)"><path
       style="fill:#e0e0e0;fill-opacity:1"
       d="m 394.45139,186.81691 c 3.88611,-9.98516 3.73672,-12.53431 -0.74412,-12.69725 -2.35639,-0.0857 -4.28435,-1.31256 -4.28435,-2.7264 0,-1.41383 0,-5.65534 0,-9.42557 0,-3.77022 1.27924,-6.85495 2.84276,-6.85495 1.56351,0 2.72029,3.47032 2.57061,7.71182 -0.19383,5.49259 1.94709,8.02701 7.43968,8.80708 5.39044,0.76557 7.71183,-0.65042 7.71183,-4.70402 0,-5.00765 -0.81877,-5.16522 -5.99809,-1.15432 -4.52812,3.5066 -4.31812,2.62508 0.85687,-3.59697 3.77023,-4.53306 5.02179,-7.17318 2.78126,-5.86693 -2.26014,1.31768 -5.57889,-0.31466 -7.45475,-3.66663 -1.85959,-3.3229 -4.52836,-4.89434 -5.9306,-3.49209 -3.63235,3.63235 -15.102,-7.64471 -15.102,-14.84841 0,-3.32096 -1.92796,-6.76084 -4.28435,-7.64417 -2.98817,-1.12016 -2.21046,-3.35736 2.57061,-7.39475 3.77023,-3.18379 4.927,-4.81212 2.57061,-3.61851 -2.58148,1.30762 -4.28435,-0.0994 -4.28435,-3.54001 0,-3.61221 1.84861,-5.00082 5.03145,-3.77945 2.7673,1.06191 6.09034,0.21744 7.38453,-1.87661 1.42489,-2.30551 0.79218,-2.84267 -1.60397,-1.36177 -4.4215,2.73264 -5.64628,-8.837162 -1.38644,-13.096998 1.41383,-1.413835 2.57061,-4.370035 2.57061,-6.569334 0,-2.199299 2.31354,-3.998725 5.14121,-3.998725 2.82767,0 5.33402,-1.927957 5.56966,-4.284349 1.29006,-12.900673 1.32104,-12.962198 4.22249,-8.387773 1.55772,2.4559 4.23324,3.998266 5.9456,3.427479 1.71237,-0.570787 3.81505,0.504572 4.67265,2.389685 2.33181,5.125653 17.95848,12.473779 22.67666,10.663243 2.69166,-1.032889 3.49123,0.829501 2.30447,5.367678 -0.99951,3.822142 0.0756,8.119201 2.38906,9.549024 3.10589,1.91954 2.73956,3.16253 -1.40026,4.75112 -3.08364,1.18331 -4.91721,1.01236 -4.07461,-0.37989 4.12058,-6.808474 -12.25712,-11.923828 -20.88397,-6.522823 -2.3564,1.475264 -4.28435,1.581042 -4.28435,0.235062 0,-1.345979 -3.08473,0.344408 -6.85496,3.756421 -3.77023,3.412 -6.90186,4.80782 -6.95918,3.10182 -0.0573,-1.706 -1.49708,-0.723 -3.19945,2.18446 -8.33136,14.22902 3.29322,44.41216 17.10467,44.41216 4.7015,0 5.79988,2.92404 5.46687,14.55359 -0.26842,9.37421 1.10799,14.71075 3.86761,14.99522 2.3564,0.24289 8.14027,0.63442 12.85305,0.87006 5.14122,0.25706 8.5687,2.48492 8.5687,5.56965 0,4.08771 -4.99155,5.14122 -24.35906,5.14122 -21.8034,0 -24.11414,-0.62929 -22.02466,-5.99809 z m 262.86504,-9.58684 c -2.1877,-4.80148 -3.97764,-10.82654 -3.97764,-13.38903 0,-3.04723 -2.49289,-4.00716 -7.20578,-2.77471 -4.22169,1.10399 -8.45817,-0.0934 -10.22996,-2.89149 -2.33712,-3.69086 -3.04801,-3.21852 -3.12913,2.07911 -0.0745,4.86358 -0.91609,5.57662 -2.89712,2.45453 -1.62604,-2.56264 -5.5406,-3.47354 -9.37308,-2.18106 -3.61951,1.22065 4.00107,-4.12539 16.93463,-11.88009 23.13799,-13.87309 33.56991,-18.54297 21.17312,-9.47821 -6.4265,4.69917 -4.37518,14.48431 2.18631,10.42909 2.27309,-1.40485 2.72301,0.43148 1.24594,5.0853 -1.27155,4.0063 -1.00375,7.28418 0.59511,7.28418 1.59886,0 4.6453,4.60525 6.76987,10.23389 3.71605,9.84494 3.58178,10.08413 -3.53291,6.29381 -6.67692,-3.55711 -6.93855,-3.38581 -2.69175,1.76229 2.58721,3.1363 3.22038,5.70236 1.40703,5.70236 -1.81335,0 -5.08693,-3.92848 -7.27464,-8.72997 z m 283.5247,-13.83426 c -0.22324,-1.72802 -0.12078,-4.606 0.22768,-6.39552 0.34847,-1.78951 -0.5237,-11.0437 -1.93816,-20.56487 -2.39029,-16.0899 -2.74046,-16.58578 -4.96338,-7.02877 -2.24302,9.64344 -2.41685,9.73929 -2.79717,1.54236 -0.22304,-4.80704 -2.19099,-10.52554 -4.37323,-12.70778 -3.0053,-3.0053 -2.98743,-5.14889 0.0737,-8.83729 2.86317,-3.44991 3.0454,-7.48922 0.62507,-13.855176 -1.87898,-4.942082 -2.62905,-8.985603 -1.66682,-8.985603 0.96222,0 0.0986,-3.084731 -1.91917,-6.854958 -2.92814,-5.471281 -2.60656,-6.854957 1.59315,-6.854957 2.89399,0 5.26181,-2.159312 5.26181,-4.798471 0,-6.631069 23.82873,-6.631069 24.42079,0 0.23563,2.639159 0.81402,6.340836 1.2853,8.225949 0.47128,1.885114 1.2527,8.440167 1.7365,14.566785 l 0.87963,11.139311 2.52509,-11.996181 2.52508,-11.996175 0.4512,11.139306 c 0.38226,9.437326 1.74398,11.13931 8.91232,11.13931 6.48357,0 7.9496,1.33303 6.2725,5.70347 -1.60121,4.17268 -0.88239,5.02439 2.67818,3.17331 2.67675,-1.3916 2.12234,-0.28466 -1.23201,2.45986 -4.93294,4.03612 -5.17672,5.34388 -1.27525,6.84102 5.24229,2.01165 4.6018,22.76335 -0.80813,26.18346 -1.66154,1.05041 -3.79167,4.99457 -4.73363,8.7648 -1.52165,6.09049 -1.75698,5.97237 -2.11023,-1.05915 -0.22194,-4.41763 -1.93657,-6.96297 -3.88098,-5.76126 -1.91587,1.18407 -2.59602,3.58864 -1.51146,5.3435 1.08456,1.75486 -1.20383,3.19065 -5.08531,3.19065 -10.34788,0 -11.93172,-1.01449 -13.05282,-8.36058 -1.88144,-12.32833 -4.93503,-10.60088 -3.85118,2.17865 0.59097,6.96806 -0.0365,13.78018 -1.39433,15.13803 -1.35785,1.35785 -2.65147,1.05499 -2.87471,-0.67303 z m -79.62575,-49.41282 c 1.35236,-6.7618 0.67637,-10.28244 -1.97431,-10.28244 -2.21695,0 -6.35208,-5.555564 -9.18918,-12.345703 -3.76907,-9.020671 -6.79902,-11.916667 -11.25003,-10.7527 -3.35042,0.876154 -6.23551,-0.12333 -6.41131,-2.221077 -0.1758,-2.097747 -1.46035,-9.983547 -2.85457,-17.524 -2.21447,-11.97666 -1.88143,-13.172032 2.63435,-9.455303 2.84312,2.340036 6.31027,3.113644 7.70478,1.719128 1.39452,-1.394516 4.72293,0.456023 7.39647,4.112308 4.81002,6.578091 4.86372,6.578034 5.12174,-0.0054 0.458,-11.685759 9.48167,16.413021 9.76093,30.394496 0.14341,7.180429 1.44591,12.322856 2.89444,11.427616 1.44853,-0.89524 2.05771,4.412015 1.35373,11.793895 -0.70397,7.38188 -2.62176,13.42161 -4.26174,13.42161 -1.63998,0 -2.05636,-4.6271 -0.9253,-10.28244 z m -13.70764,-368.3442 c -1.06191,-2.7673 -0.21744,-6.09034 1.87661,-7.38453 2.49432,-1.54158 2.8603,-0.69291 1.06123,2.46084 -2.01814,3.53774 -1.68836,3.844 1.24397,1.15526 2.19457,-2.01227 5.35556,-8.41968 7.02443,-14.23869 2.57654,-8.98387 1.63633,-12.25459 -6.23215,-21.67976 -7.74897,-9.28202 -11.06214,-10.83619 -20.23152,-9.49041 -8.92085,1.3093 -10.96505,0.44203 -10.96505,-4.65201 0,-3.44374 1.92795,-6.36975 4.28435,-6.50225 2.35639,-0.13249 1.19961,-1.56645 -2.57061,-3.18657 -6.00408,-2.58005 -6.09673,-2.97558 -0.74643,-3.18658 3.3597,-0.1325 7.50344,-3.71122 9.20832,-7.95273 1.70487,-4.2415 3.19754,-5.69284 3.31703,-3.2252 0.11949,2.46765 1.75962,3.53339 3.64473,2.36833 1.88511,-1.16506 3.42748,-0.64992 3.42748,1.14476 0,1.79468 -2.31355,4.15085 -5.14122,5.23593 -2.82767,1.08507 -5.14122,3.67381 -5.14122,5.75274 0,2.32123 1.80026,1.9796 4.66515,-0.88528 2.94289,-2.94289 9.8338,-4.17223 18.66572,-3.32997 l 14.00059,1.33517 -6.78592,7.28383 c -5.03056,5.39966 -5.64755,7.7493 -2.38521,9.08324 2.4204,0.98968 4.61217,4.48195 4.87061,7.76061 0.26297,3.33615 -1.10221,4.98959 -3.10018,3.75478 -2.07381,-1.28169 -2.54509,-0.54798 -1.12448,1.75062 3.47525,5.62308 8.89599,4.90152 8.89599,-1.18416 0,-2.82767 1.92796,-5.16484 4.28435,-5.19371 2.84619,-0.0349 2.55856,-1.14814 -0.85687,-3.3165 -3.50387,-2.22452 1.92567,-3.02648 17.04855,-2.51813 20.63544,0.69365 22.16264,1.28609 21.80257,8.45773 -0.21296,4.2415 -0.55857,12.33892 -0.76802,17.99426 -0.22431,6.05632 -2.07768,9.93026 -4.50939,9.42557 -2.2707,-0.47128 -4.19866,1.41383 -4.28435,4.18914 -0.0933,3.02024 -3.25177,4.89312 -7.86762,4.66518 -12.37243,-0.61099 -13.42475,-1.66209 -4.28435,-4.27941 l 8.5687,-2.45361 -9.32184,-1.85083 c -5.12702,-1.01796 -8.6062,-0.69289 -7.73152,0.72237 1.57007,2.54043 -5.89624,6.84893 -15.09879,8.71289 -2.60277,0.52718 -6.38156,2.60777 -8.39732,4.62352 -5.00341,5.00342 -8.05672,4.60017 -10.34632,-1.36644 z"
       id="path5" /><path
       style="fill:#dbdbdb;fill-opacity:1"
       d="m 848.21207,123.8305 c -6.50624,-2.38462 -8.58994,-5.12528 -7.38882,-9.71839 1.08083,-4.13308 -0.86752,-7.75675 -5.50507,-10.23869 -5.93392,-3.17574 -7.13621,-6.939287 -6.93706,-21.715199 0.16973,-12.593518 1.05556,-15.848614 2.99859,-11.018715 1.51673,3.770227 2.17738,7.867893 1.46811,9.105924 -0.70927,1.238032 1.71085,1.466334 5.37806,0.507338 5.14801,-1.346236 7.8433,1.070099 11.82601,10.602079 2.8371,6.790139 6.97223,12.345703 9.18918,12.345703 2.62918,0 3.33247,3.49168 2.02251,10.04145 -1.26539,6.32695 -0.47296,10.66443 2.14218,11.72558 7.96652,3.2326 -6.01846,1.72575 -15.19369,-1.63708 z m -44.06421,-2.65526 c -8.29378,-2.32966 -8.34876,-2.53529 -1.71374,-6.40908 3.77023,-2.20121 4.927,-4.0491 2.57061,-4.10642 -2.35639,-0.0573 -4.28435,-3.06043 -4.28435,-6.67356 0,-3.61314 -1.92795,-7.347284 -4.28434,-8.298109 -2.63795,-1.064435 -2.05713,-1.832755 1.51146,-1.999362 3.18769,-0.148825 6.76459,1.296934 7.94866,3.212797 1.18406,1.915863 3.41388,2.704028 4.95514,1.751477 1.54126,-0.95255 4.70827,0.564656 7.0378,3.371567 2.32953,2.80692 6.3602,5.10348 8.95705,5.10348 8.16564,0 5.12714,10.2979 -4.07028,13.79475 -4.83551,1.83846 -9.07701,3.1889 -9.42557,3.001 -0.34856,-0.18791 -4.48965,-1.42475 -9.20244,-2.74854 z m -99.93234,-249.68637 c -1.97189,-9.46661 -0.86747,-20.83088 1.97466,-20.31883 1.86473,0.33595 3.46053,-1.1886 3.54622,-3.3879 0.0857,-2.1993 1.55985,-5.28403 3.27592,-6.85496 1.79474,-1.64295 2.13497,-1.13691 0.80096,1.19129 -1.27554,2.22613 -1.07158,4.81856 0.45324,5.76095 3.79922,2.34805 5.15228,-19.06849 1.36091,-21.54079 -1.668,-1.08768 -3.98999,-8.14706 -5.16,-15.68751 -1.47633,-9.51473 -1.17693,-11.61232 0.97845,-6.85496 2.4871,5.48951 3.15372,5.7206 3.34663,1.16015 0.24568,-5.80782 5.43859,-6.501 13.05469,-1.74262 2.81816,1.76073 3.62116,1.02633 2.38893,-2.18482 -1.36029,-3.54487 0.87291,-4.72703 8.35952,-4.42518 5.61862,0.22654 11.48425,1.68046 13.03472,3.23093 1.55048,1.55048 0.5055,2.30493 -2.32217,1.67656 -3.17565,-0.7057 -4.62832,0.82307 -3.79967,3.99872 2.40256,9.20737 0.80998,18.17447 -3.74046,21.06086 -3.48429,2.21013 -3.33488,2.84076 0.68517,2.89182 2.82767,0.0359 -0.0123,3.20725 -6.31108,7.04741 -7.53764,4.59546 -10.77293,8.7525 -9.46482,12.16138 1.28695,3.35375 0.58794,4.31431 -1.98321,2.72525 -2.67588,-1.65378 -3.23472,-0.53612 -1.71374,3.42748 1.41852,3.69661 0.91311,5.05096 -1.36051,3.64578 -1.9896,-1.22964 -3.33156,-0.15297 -2.98213,2.3926 1.35235,9.85164 -0.43018,13.197 -7.03182,13.197 -3.77022,0 -7.09591,-1.15678 -7.39041,-2.57061 z"
       id="path6" /><path
       style="fill:#d5d5d5;fill-opacity:1"
       d="m 571.42996,121.86049 c 1.37048,-8.13256 -1.30334,-11.35216 -9.77622,-11.77174 -8.08147,-0.4002 -8.32585,-0.67858 -1.71374,-1.95212 4.2415,-0.81695 7.71182,-2.92046 7.71182,-4.67446 0,-1.754 1.15678,-3.00645 2.57061,-2.78321 1.41384,0.22324 3.72739,0.0304 5.14122,-0.42843 4.33348,-1.406484 9.24941,-2.527271 13.05533,-2.976498 1.99636,-0.235639 2.52924,-2.209109 1.18416,-4.385488 -1.49931,-2.425933 -0.94188,-3.027709 1.44063,-1.555239 2.13742,1.320999 6.90922,0.783954 10.604,-1.193433 4.12387,-2.207028 7.48765,-2.349577 8.7116,-0.369179 1.09661,1.774338 5.04612,2.638251 8.77671,1.919806 7.4225,-1.429444 9.38671,3.533185 2.49854,6.312624 -2.3564,0.950824 -0.72301,1.850538 3.62975,1.999367 4.43964,0.15179 6.96896,1.79987 5.76126,3.75397 -1.18407,1.91587 -3.58864,2.59602 -5.3435,1.51146 -1.75485,-1.08456 -3.19065,-0.506 -3.19065,1.28568 0,1.79168 -5.78387,5.53104 -12.85304,8.30969 -16.42117,6.4546 -38.80791,10.55433 -38.20848,6.9972 z M 701.3235,-142.18176 c 0,-2.23113 3.47032,-7.31493 7.71183,-11.29734 4.93431,-4.6329 5.86015,-6.84127 2.5706,-6.13161 -5.85132,1.26233 -5.74889,2.90073 -2.01709,-32.26474 1.9234,-18.12465 4.04422,-25.83123 6.7,-24.34639 2.25662,1.26166 2.08951,0.23728 -0.39856,-2.44328 -2.35639,-2.53869 -4.26073,-7.77765 -4.23186,-11.64213 0.0423,-5.66755 0.66911,-6.0513 3.24111,-1.98438 6.0731,9.60296 8.17477,-0.0179 2.4192,-11.07437 -3.99313,-7.67085 -5.12677,-8.58742 -3.66586,-2.96393 1.28942,4.96336 0.79525,7.32544 -1.26602,6.0515 -1.85952,-1.14925 -4.11087,-4.88073 -5.00298,-8.29219 -1.18547,-4.53323 0.47439,-6.37614 6.16717,-6.84729 8.18783,-0.67765 23.7575,5.94692 24.51253,10.42956 2.27838,13.52671 5.38078,23.07842 7.49587,23.07842 1.40884,0 1.85026,4.84619 0.98093,10.76931 -0.96772,6.59352 -0.26503,9.95624 1.81223,8.67242 2.03794,-1.25952 2.73563,1.34107 1.7471,6.51221 -1.8007,9.41978 -4.21159,9.08288 -5.65808,-0.79065 -0.55572,-3.79331 -3.94847,-6.47099 -8.50215,-6.7102 -5.22147,-0.27428 -6.99751,1.11314 -5.71229,4.46237 1.24026,3.23208 0.44293,3.97186 -2.37998,2.20816 -8.92661,-5.57716 -12.69866,-3.51669 -14.88361,8.13009 -1.44824,7.71979 -0.83063,12.93841 1.71759,14.5133 2.18844,1.35253 3.6142,7.24639 3.16836,13.09746 -0.44584,5.85108 -1.9275,9.94805 -3.29259,9.10437 -1.36509,-0.84367 -4.90107,1.91977 -7.85772,6.14099 -2.95665,4.22121 -5.37573,5.84946 -5.37573,3.61834 z"
       id="path7" /><path
       style="fill:#d0d0d0;fill-opacity:1"
       d="m 588.2167,93.688168 c 4.71278,-3.83492 10.49665,-7.006877 12.85304,-7.048794 2.35639,-0.04192 4.28435,-1.618579 4.28435,-3.503692 0,-1.885113 1.5564,-3.427479 3.45868,-3.427479 1.90227,0 8.1327,-4.466756 13.84541,-9.926124 6.78751,-6.486511 12.71517,-9.317224 17.1062,-8.168945 3.71164,0.970617 6.71946,0.044 6.71946,-2.070052 0,-2.104977 -2.31355,-3.82723 -5.14122,-3.82723 -5.50959,0 -7.11147,-5.530986 -2.15076,-7.426204 1.64475,-0.628371 7.06901,-9.239912 12.05391,-19.136757 4.9849,-9.896845 10.57984,-17.994263 12.4332,-17.994263 3.70602,0 4.47453,21.234312 1.20945,33.417918 -1.13668,4.241505 -4.00103,7.711827 -6.36523,7.711827 -2.85278,0 -4.02586,4.515558 -3.48781,13.425791 0.65407,10.83164 -0.20242,13.037015 -4.43268,11.413715 -3.57694,-1.372603 -4.4059,-0.657007 -2.60829,2.251591 3.97079,6.42487 -11.38686,20.94268 -21.81603,20.62302 -4.85546,-0.148829 -6.90016,-1.048543 -4.54376,-1.999367 6.88817,-2.779439 4.92396,-7.742068 -2.49854,-6.312624 -3.73059,0.718445 -7.67044,-0.129823 -8.75522,-1.885041 -1.10717,-1.791435 -8.28025,-0.110527 -16.3526,3.831994 -14.36846,7.017538 -14.37323,7.017578 -5.81156,0.05072 z M 807.97628,-49.474057 c -4.49227,-4.266835 -9.74327,-6.784167 -11.66889,-5.594072 -2.16679,1.339152 -2.43187,0.433739 -0.69554,-2.375705 2.01934,-3.267358 1.25615,-3.944943 -2.72335,-2.417867 -3.88233,1.489789 -4.96132,0.642499 -3.62304,-2.845018 1.22288,-3.186775 -0.27268,-4.966665 -4.17328,-4.966665 -3.34354,0 -5.07264,-1.006517 -3.84246,-2.236706 1.23019,-1.230188 6.91329,-2.103739 12.62911,-1.941226 5.71582,0.162514 9.59133,-1.000677 8.61225,-2.58487 -0.97909,-1.584192 1.54789,-2.010047 5.61549,-0.946344 5.50969,1.440815 6.68691,0.787236 4.61638,-2.562956 -1.81516,-2.936979 -1.44151,-3.670173 1.07712,-2.113578 2.12102,1.310861 8.57408,-0.05623 14.34014,-3.037974 5.76607,-2.981747 12.36642,-4.291074 14.66745,-2.909616 2.65369,1.593183 2.4634,0.390957 -0.52034,-3.287408 -4.63133,-5.709535 -2.37023,-7.676455 7.1723,-6.239149 1.35755,0.204475 4.13408,-2.740806 6.17006,-6.545069 2.03598,-3.80426 5.24165,-5.96515 7.12372,-4.80197 2.20703,1.36402 1.99698,3.83186 -0.59164,6.950958 -3.21837,3.877895 -2.70807,4.836078 2.57555,4.836078 3.62403,0 8.53135,1.927957 10.90518,4.284348 3.46059,3.435185 3.86344,3.095519 2.03253,-1.713739 -1.55664,-4.088817 -0.61949,-5.998088 2.94409,-5.998088 2.87518,0 7.54833,-0.890551 10.38479,-1.979007 6.28407,-2.41142 5.64344,8.051081 -0.73433,11.992759 -2.32323,1.43584 -3.75706,4.712715 -3.18627,7.281944 0.57079,2.56923 -0.50457,4.814761 -2.38969,4.990068 -1.88511,0.175307 -8.82575,3.718789 -15.42365,7.874403 -6.5979,4.155614 -13.92413,6.829835 -16.28052,5.942712 -2.3564,-0.887122 -4.28435,0.556335 -4.28435,3.207684 0,2.651348 -2.91527,4.601032 -6.47838,4.332632 -4.1766,-0.314614 -5.79634,-2.265391 -4.55876,-5.490465 1.05579,-2.751355 0.50074,-4.291124 -1.23345,-3.421709 -1.73419,0.869415 -7.34193,3.668437 -12.46166,6.220049 -5.11972,2.551611 -8.48347,5.974361 -7.47499,7.606111 1.00848,1.63175 3.01232,2.238323 4.45299,1.34794 1.44067,-0.890383 2.6194,0.369763 2.6194,2.800324 0,6.582142 -6.39059,5.08272 -15.59396,-3.658809 z"
       id="path8" /><path
       style="fill:#cacaca;fill-opacity:1"
       d="m 874.41118,-91.665735 c -1.16507,-1.885114 -5.30086,-3.427479 -9.19065,-3.427479 -6.21165,0 -6.49988,-0.705756 -2.36833,-5.799156 4.04812,-4.99055 3.98716,-5.44631 -0.4372,-3.26866 -2.82767,1.39177 -0.59438,-1.0113 4.96287,-5.34015 16.70856,-13.01524 32.70561,-31.48546 32.72302,-37.78207 0.009,-3.25549 3.85905,-8.43689 8.55565,-11.51422 4.6966,-3.07733 7.75617,-6.86222 6.79905,-8.41088 -0.95712,-1.54865 0.0656,-3.9318 2.27274,-5.29588 2.50627,-1.54896 3.09475,-0.99444 1.56737,1.47691 -1.34508,2.17638 -0.62335,3.95705 1.60384,3.95705 3.02456,0 2.97368,1.29621 -0.20105,5.12152 -2.33777,2.81684 -3.51169,8.9863 -2.60871,13.70992 1.12894,5.90567 0.12111,8.58839 -3.22643,8.58839 -2.67751,0 -3.87321,1.60993 -2.65711,3.57762 1.2161,1.96769 0.34709,5.82361 -1.93114,8.5687 -2.27822,2.74509 -2.99333,4.99108 -1.58913,4.99108 1.4042,0 0.83525,2.06986 -1.26433,4.5997 -2.09958,2.52984 -3.1651,5.25203 -2.36783,6.0493 0.79727,0.79727 -1.6635,5.28246 -5.46838,9.96708 -3.80488,4.684615 -5.75993,6.327421 -4.34454,3.650675 1.91614,-3.623775 1.0451,-4.280335 -3.41038,-2.570605 -3.29109,1.262907 -8.33622,2.296197 -11.2114,2.296197 -3.2386,0 -4.47696,1.956134 -3.25473,5.141218 2.22594,5.800693 0.27306,6.933944 -2.9532,1.71374 z"
       id="path9" /><path
       style="fill:#c4c4c4;fill-opacity:1"
       d="m 607.06783,119.12779 c 23.52574,-9.61216 58.72285,-42.532278 55.22364,-51.651077 -1.29457,-3.373585 -0.62388,-4.39958 1.86889,-2.858961 2.73798,1.692161 3.2025,-0.536381 1.57037,-7.533812 -1.45564,-6.240735 -1.181,-8.235424 0.73834,-5.362696 4.17479,6.248483 7.32688,-6.126961 7.3878,-29.005254 0.0382,-14.3344423 -1.37558,-18.5964606 -7.66503,-23.10782355 -7.52947,-5.40081335 -7.47953,-5.43392515 2.11177,-1.40027765 9.79825,4.120678 9.81962,4.1980008 8.27966,29.9627812 -1.80634,30.221576 -9.84897,48.424459 -30.53544,69.110936 -13.41821,13.418204 -43.90224,30.394244 -54.40365,30.296464 -2.82767,-0.0263 4.11297,-3.82895 15.42365,-8.45028 z"
       id="path10" /><path
       style="fill:#333333;fill-opacity:1"
       d="m 681.07554,178.65565 c -9.352,-10.03819 -9.05761,-17.14896 1.10523,-26.69645 9.86897,-9.27142 20.01155,-7.36525 28.32548,5.32342 5.22404,7.97289 5.14322,9.08229 -1.29205,17.73431 -8.91331,11.98367 -19.13295,13.30522 -28.13866,3.63872 z M 484.5129,160.00984 c -4.98692,-5.11013 1.40223,-87.914824 8.43386,-109.304386 7.80903,-23.754341 19.93915,-45.5407668 32.16044,-57.7620493 l 8.61738,-8.6173837 -20.95317,-11.167923 C 462.22474,-53.782995 428.81069,-117.86152 431.26182,-183.15384 l 1.00459,-26.75991 47.9847,-2.68078 c 53.31143,-2.97837 83.77999,0.19098 105.5946,10.98399 7.69621,3.80779 14.55698,6.35938 15.24615,5.67021 0.68917,-0.68917 2.62224,-10.93969 4.2957,-22.77893 4.89762,-34.64906 19.92847,-60.62365 52.33957,-90.44719 16.9879,-15.63166 31.03712,-25.85028 35.54065,-25.85028 4.74033,0 18.59897,10.9017 38.12496,29.99044 33.48374,32.73393 49.87526,60.28513 54.16027,91.03373 1.87893,13.48287 3.31357,16.05233 7.87554,14.10511 29.59763,-12.6334 33.09874,-13.08496 95.93997,-12.37397 34.61813,0.39167 64.49164,1.66983 66.38558,2.84035 5.54928,3.42964 -0.52372,61.75593 -9.31444,89.45787 -9.23536,29.103107 -23.07898,51.86941 -43.5783,71.665995 -14.64851,14.146347 -38.10144,28.608524 -46.39369,28.608524 -6.99989,0 -4.83758,4.289502 9.50274,18.8511331 24.29241,24.6673169 37.49764,70.2705099 37.54845,129.6704479 l 0.0259,30.27357 -59.12401,-1.14 c -58.03575,-1.11901 -59.54053,-1.33735 -81.75321,-11.8623 -13.86838,-6.57121 -31.80741,-19.38057 -46.33652,-33.0866 L 692.6237,90.653287 674.5306,110.80227 c -13.78273,15.34884 -25.09085,23.61652 -47.46667,34.70417 l -29.37357,14.55518 -55.29214,1.30272 c -30.41068,0.7165 -56.45906,0.10697 -57.88531,-1.3545 z m 89.99388,-29.09523 c 61.4602,-9.88024 98.77421,-47.488944 102.08502,-102.891232 l 1.55247,-25.9787346 -10.7584,-4.4562737 c -5.91712,-2.4509504 -14.65196,-9.0835167 -19.41077,-14.7390357 -7.84206,-9.319764 -10.03759,-10.092898 -23.44348,-8.255416 -57.26821,7.849481 -97.49057,46.284045 -107.97231,103.173165 -4.18886,22.734867 -4.94752,51.010437 -1.46216,54.495797 3.41082,3.41082 34.14427,2.71334 59.40963,-1.34827 z m 295.91523,-26.17843 c -0.30894,-15.453862 -3.01254,-36.528534 -6.00801,-46.8326 -11.38533,-39.164144 -52.23196,-75.069719 -93.4279,-82.126283 -22.3337,-3.825601 -22.38725,-3.815327 -29.25543,5.613159 -3.78442,5.195176 -12.88184,12.5072953 -20.21649,16.249154 -13.27371,6.7717423 -13.33572,6.8996737 -13.33572,27.510841 0,37.04962 24.25189,73.158168 62.10654,92.470169 18.12443,9.24639 56.49597,16.66994 81.84757,15.83463 l 18.85113,-0.62113 z m -162.20495,-136.441 c 6.69107,-3.460085 11.2838,-9.510794 13.9345,-18.358044 9.61801,-32.102036 -25.58318,-58.435086 -49.88622,-37.318523 -12.23897,10.634267 -14.45677,28.414351 -5.35885,42.961946 10.70642,17.119574 24.55179,21.380922 41.31057,12.714621 z m 125.80146,-10.671288 c 36.92716,-12.496532 69.64808,-43.382149 81.78683,-77.199442 2.94825,-8.21352 7.36109,-26.22142 9.8063,-40.01756 l 4.44584,-25.08388 -51.91262,1.09153 c -50.70118,1.06607 -52.4434,1.35313 -74.65775,12.30126 -24.05868,11.85708 -37.63181,24.86447 -52.6024,50.40984 -8.84494,15.09275 -8.96843,16.01313 -3.65178,27.217151 3.02651,6.377885 5.50274,17.077039 5.50274,23.775898 0,11.406442 0.81605,12.316507 12.85305,14.3338 18.36108,3.077154 44.99146,11.837242 47.28979,15.556022 2.50836,4.058598 1.89634,4.127634 21.14,-2.384619 z m -249.86155,-3.129063 c 8.13527,-2.83352 22.53358,-6.281396 31.99625,-7.661946 l 17.20484,-2.510091 1.53943,-22.999943 c 1.36679,-20.420647 0.39208,-25.272829 -8.69164,-43.267579 -12.97391,-25.70117 -27.8122,-40.52137 -51.67821,-51.6152 -16.08792,-7.47828 -24.81875,-8.96417 -59.18251,-10.0722 -22.17078,-0.71487 -43.97314,-0.38051 -48.44968,0.74303 l -8.13917,2.0428 4.57514,23.16854 c 11.83349,59.924778 29.81531,86.633454 72.24011,107.29933 23.27508,11.337704 28.51616,11.8634 48.58544,4.873259 z m 118.18606,-73.738569 c 15.0329,5.24049 15.37645,5.05961 24.11176,-12.69487 4.40557,-8.95429 13.11921,-24.37221 19.36365,-34.26205 l 11.35353,-17.98152 -4.01325,-24.30112 c -5.27694,-31.9531 -13.48184,-47.15786 -39.01242,-72.29513 l -21.12621,-20.80075 -24.44591,25.49734 c -27.4209,28.6003 -35.68466,46.49652 -35.97939,77.91796 -0.15194,16.19837 2.31951,24.04631 16.28052,51.69791 l 16.45966,32.60047 13.36112,-4.48195 c 9.84427,-3.30223 16.06852,-3.53815 23.64694,-0.89629 z m -300.67911,258.688 c -5.64213,-5.64213 -7.11569,-20.86225 -2.69319,-27.81745 4.8337,-7.60189 19.65286,-11.09135 28.49244,-6.70911 10.55796,5.23412 13.08295,23.90866 4.51309,33.37825 -7.16802,7.92058 -22.94249,8.51816 -30.31234,1.14831 z M 946.5311,46.48115 c -26.73576,-7.270887 -39.89758,-35.461835 -27.63118,-59.182449 16.31623,-31.552108 60.73362,-32.423031 75.41763,-1.478767 6.46725,13.62877575 6.54725,22.3264078 0.34167,37.178362 -7.48931,17.924452 -29.34847,28.590051 -48.12812,23.482854 z m 24.01407,-33.378944 c 6.4516,-9.8463862 2.45304,-20.6717886 -8.97527,-24.298994 -14.21632,-4.512085 -26.90985,17.8249424 -16.20991,28.524878 6.8296,6.829596 19.3139,4.734824 25.18518,-4.225884 z M 404.50383,26.92503 C 395.50827,17.929469 392.8504,12.41857 392.8504,2.7624704 c 0,-24.7957504 16.05804,-43.1110504 37.60804,-42.8945704 15.22624,0.152956 26.08143,6.109696 34.55292,18.960779 17.38002,26.3651453 -1.99758,59.749779 -34.68085,59.749779 -11.54863,0 -16.33125,-2.157999 -25.82668,-11.653428 z m 34.28795,-16.815306 c 12.85225,-9.39779287 -0.81006,-32.70661 -14.2372,-24.289616 -8.09457,5.0742004 -9.31784,16.3879042 -2.50819,23.1975605 6.73479,6.7347895 8.84068,6.8721245 16.74539,1.0920555 z m 86.08796,-267.251274 c -13.38139,-13.3814 -15.22209,-24.13074 -6.89088,-40.24151 14.75594,-28.53485 54.45986,-20.13858 58.82968,12.44082 1.62484,12.11409 0.52079,15.57688 -7.92376,24.85238 -5.39641,5.92741 -14.79221,11.73084 -20.87955,12.8965 -9.49961,1.81908 -12.77785,0.40944 -23.13549,-9.94819 z m 295.22299,-5.31114 c -11.67378,-12.89938 -2.99623,-34.86177 13.77424,-34.86177 16.03313,0 24.26448,24.34691 11.98763,35.45731 -8.22301,7.44172 -18.70759,7.19935 -25.76187,-0.59554 z"
       id="path11" /></g><g
     id="g18"
     transform="matrix(0.76290182,0,0,0.76290182,-219.73916,426.27528)"><g
       id="g17"
       transform="matrix(0.33418843,0,0,0.33418843,219.1856,-240.82063)"><path
         style="fill:#e0e0e0;fill-opacity:1"
         d="m 545.20131,-47.660881 c 14.50473,-2.049746 13.71444,-2.348808 -13.26465,-5.019602 -22.85693,-2.262723 -29.29065,-1.889216 -31.65169,1.83752 -2.37105,3.742542 -2.97389,3.775164 -3.01588,0.163205 -0.0394,-3.389264 -6.24536,-4.313457 -24.90171,-3.708368 -19.54384,0.633872 -24.84922,-0.23175 -24.84922,-4.054385 0,-3.283683 -4.17165,-4.948281 -12.85997,-5.131462 -7.07299,-0.149124 -12.51685,-1.69149 -12.09747,-3.427479 0.41938,-1.735989 2.76045,-2.697536 5.20238,-2.136771 2.44193,0.560766 4.02988,-0.911492 3.52877,-3.271684 -0.5011,-2.360192 2.55922,-4.554161 6.80073,-4.875487 4.2415,-0.321326 8.09741,-0.848534 8.56869,-1.171572 0.47128,-0.323038 11.65343,-0.92908 24.84922,-1.34676 16.8725,-0.534057 23.73807,-2.012582 23.13548,-4.98231 -0.47127,-2.322592 1.07109,-4.337507 3.42748,-4.47759 17.72188,-1.053532 28.61386,-7.363912 24.42079,-14.148444 -0.92943,-1.50384 -0.1475,-2.73425 1.73761,-2.73425 5.93745,0 8.34669,7.489019 3.41428,10.613153 -2.85489,1.808262 10.53023,3.012553 33.83568,3.044275 28.5627,0.03888 38.57274,-1.058231 38.61162,-4.231865 0.0411,-3.353833 0.63171,-3.372633 2.71939,-0.08655 1.4668,2.308786 6.45587,4.776029 11.08683,5.482763 4.63095,0.706734 8.41991,3.444823 8.41991,6.084644 0,2.692452 3.38575,4.799672 7.71182,4.799672 4.24151,0 7.71183,1.156774 7.71183,2.570609 0,10.396643 -0.27449,10.876995 -3.42748,5.998088 -2.74264,-4.243941 -3.33167,-3.922599 -3.37499,1.841227 -0.0651,8.665001 12.56295,10.558829 14.76629,2.214493 1.07353,-4.065611 1.64085,-3.491987 1.92102,1.942368 0.73644,14.284202 1.76612,13.050567 -11.80086,14.13835 -2.93892,0.235639 -4.31281,2.096115 -3.05309,4.134392 2.32565,3.76297 -30.90194,1.235305 -37.54708,-2.856254 -1.7051,-1.049869 -1.99966,-0.128179 -0.65459,2.048201 1.53338,2.481064 -0.0802,3.957053 -4.32602,3.957053 -3.72439,0 -7.54956,-1.927957 -8.50038,-4.284348 -1.38302,-3.427479 -1.78289,-3.427479 -1.99937,0 -0.14882,2.356391 -3.22679,4.284348 -6.83992,4.284348 -3.61314,0 -7.34728,-1.927957 -8.29811,-4.284348 -1.38302,-3.427479 -1.78289,-3.427479 -1.99936,0 -0.18102,2.866124 -5.65984,4.113941 -16.55111,3.769562 l -16.28053,-0.514785 z M 227.37869,-115.89998 c -6.04284,-8.17337 -7.0723,-13.86538 -6.35396,-35.13165 0.79597,-23.56434 6.41593,-40.80166 13.30276,-40.80166 1.54291,0 1.84555,-1.55289 0.67254,-3.45087 -1.17302,-1.89798 1.0495,-7.91994 4.93893,-13.38215 7.64314,-10.7338 9.10768,-15.67716 3.64422,-12.30055 -1.88512,1.16506 -3.42748,0.48491 -3.42748,-1.51146 0,-1.99637 2.20961,-3.62976 4.91025,-3.62976 2.70063,0 5.76692,-2.69914 6.81397,-5.99809 2.83121,-8.92038 2.39007,-12.85304 -1.44178,-12.85304 -1.88512,0 -3.42748,-1.15678 -3.42748,-2.57061 0,-1.41384 0,-3.65027 0,-4.96984 0,-1.31958 1.85084,-0.5484 4.11297,1.71373 5.26601,5.26601 16.4519,5.34369 16.4519,0.11425 0,-5.92903 3.79583,-1.05175 4.86827,6.25527 0.93604,6.37765 1.96119,6.825 17.41034,7.59746 5.59624,0.27981 8.66256,2.50916 8.83929,6.42652 0.16165,3.58322 0.9666,4.27318 1.99936,1.71374 0.95083,-2.35639 3.0942,-4.28435 4.76306,-4.28435 1.66885,0 2.15912,2.28064 1.08947,5.06809 -1.16757,3.04264 -8.77503,5.97415 -19.03543,7.33524 -9.45712,1.25453 -17.88949,4.34896 -18.8792,6.92809 -0.98371,2.56351 -4.75669,4.66094 -8.38439,4.66094 -3.62771,0 -7.60861,2.69913 -8.84646,5.99808 -1.23785,3.29895 -4.46945,7.66256 -7.18135,9.69691 -3.80355,2.85326 -4.07555,5.29668 -1.18986,10.68865 2.05746,3.84441 2.76687,7.96381 1.57645,9.15423 -2.18687,2.18686 6.64942,3.48655 16.11549,2.37035 8.2768,-0.97596 41.12975,-18.1762 41.12975,-21.53357 0,-1.68811 1.44278,-2.17761 3.20617,-1.08777 3.77818,2.33504 -13.01962,20.16398 -20.00045,21.22818 -2.63896,0.4023 -5.72369,2.10448 -6.85496,3.78262 -1.13127,1.67814 -6.29836,2.79005 -11.48242,2.47092 -5.18406,-0.31914 -9.42557,0.67552 -9.42557,2.21035 0,1.53483 -2.11467,1.97913 -4.69928,0.98732 -5.25146,-2.01517 -15.86559,7.06582 -15.86559,13.57393 0,2.31599 1.92796,6.42423 4.28435,9.1294 2.35639,2.70518 0.23137,1.37954 -4.72228,-2.94587 l -9.00662,-7.86436 -1.53985,10.49161 c -1.00927,6.87662 0.36293,12.2136 3.98248,15.48925 4.47177,4.04689 8.97221,18.98413 5.71973,18.98413 -0.47088,0 -4.10119,-4.38915 -8.06734,-9.75366 z m 643.43309,-34.56475 c 0,-10.12997 -1.29534,-14.06705 -4.28434,-13.02191 -2.3564,0.82394 -3.85799,3.92033 -3.33688,6.88086 0.52111,2.96053 -2.20042,6.38188 -6.04786,7.60301 -3.84743,1.22113 -6.3086,3.33138 -5.46927,4.68945 0.83934,1.35807 -1.41904,2.69107 -5.01861,2.96221 -3.59957,0.27115 -6.19186,-1.3083 -5.76064,-3.50989 0.43122,-2.20159 -5.38543,-7.07047 -12.92588,-10.81972 -11.02656,-5.48261 -12.36824,-7.07358 -6.85496,-8.12863 3.77023,-0.72149 9.71603,-3.85171 13.21289,-6.95604 3.49686,-3.10434 6.83865,-4.87306 7.4262,-3.93051 0.58755,0.94256 2.22505,0.55697 3.63889,-0.85687 1.41383,-1.41383 0.71037,-2.57061 -1.56325,-2.57061 -3.09079,0 -3.01872,-1.21052 0.28562,-4.79749 3.34944,-3.63592 5.57062,-3.85478 9.1739,-0.90394 3.72168,3.04781 5.9431,2.1033 10.22677,-4.34825 3.00979,-4.53299 5.4974,-10.68127 5.52802,-13.66284 0.0306,-2.98158 2.36921,-5.42105 5.19688,-5.42105 2.82767,0 4.72904,2.00774 4.22526,4.46164 -0.66401,3.23435 2.78433,4.0916 12.53602,3.11643 10.18457,-1.01846 13.0255,-0.23378 11.69612,3.23051 -0.96572,2.51664 -3.13661,3.72236 -4.82419,2.67937 -1.68759,-1.04298 -2.95993,3.97857 -2.82743,11.159 0.19237,10.42537 0.83429,11.67441 3.18657,6.20036 2.63025,-6.1209 2.97148,-5.8673 3.18658,2.36833 0.1325,5.07281 -1.40661,10.24151 -3.42024,11.486 -2.01363,1.24449 -2.7495,4.63841 -1.63528,7.54203 1.70907,4.45376 1.17939,4.57681 -3.3872,0.78687 -2.9772,-2.47085 -4.94046,-3.0746 -4.36282,-1.34166 0.57765,1.73293 -0.22332,3.43506 -1.77993,3.78252 -1.5566,0.34745 -5.79811,4.05377 -9.42556,8.23626 l -6.59538,7.60453 z M 571.9823,-211.54129 c -2.1216,-31.30249 -2.0426,-31.91904 3.51346,-27.4221 3.46076,2.80106 4.47042,2.90903 2.91341,0.31157 -1.31054,-2.18628 -1.39197,-6.5571 -0.18096,-9.71295 1.62417,-4.2325 2.88646,-4.63016 4.8113,-1.5157 1.4352,2.3222 8.17366,4.56001 14.97434,4.9729 12.60917,0.76554 14.1228,2.05276 11.12346,9.45961 -1.31813,3.25514 -1.76101,3.23588 -1.9708,-0.0857 -0.14882,-2.35639 -3.52033,-4.28434 -7.49225,-4.28434 -5.0111,0 -6.61776,1.57373 -5.24879,5.14121 1.08508,2.82767 0.64393,5.14122 -0.98033,5.14122 -1.62426,0 -3.8339,2.29505 -4.9103,5.1001 -1.0764,2.80506 -0.85583,4.93596 0.49017,4.73534 6.69858,-0.99844 8.74817,0.91002 4.161,3.87448 -3.75741,2.42822 -1.15089,3.33663 9.68388,3.37499 14.04991,0.0497 14.7926,-0.44037 14.2036,-9.37308 -1.14399,-17.34957 0.93495,-19.87613 3.5253,-4.28435 1.40933,8.48301 2.32063,15.73314 2.02511,16.1114 -0.29553,0.37826 -9.35349,1.1478 -20.12882,1.71009 -10.77533,0.56229 -19.59151,2.18076 -19.59151,3.5966 0,1.41585 -2.31355,2.57426 -5.14122,2.57426 -3.16874,0 -5.38631,-3.6162 -5.78005,-9.42556 z m 82.3342,-7.29065 c 2.5174,-1.59573 4.79291,-4.27125 5.0567,-5.9456 0.26378,-1.67435 5.91592,-2.88365 12.5603,-2.68733 8.50564,0.25132 12.7623,-1.39817 14.38394,-5.5739 1.6113,-4.14911 4.88475,-5.43737 10.89624,-4.2882 5.59458,1.06947 7.95186,3.31341 6.75562,6.43077 -1.42083,3.70261 2.32521,4.88538 16.52359,5.21713 l 18.36096,0.429 -15.42365,3.03254 c -17.0397,3.35028 -16.42436,3.31478 -36.51858,2.10675 -7.83198,-0.47084 -13.52482,0.30069 -12.65076,1.71453 0.87406,1.41383 -4.2857,2.54699 -11.46613,2.51812 -8.46036,-0.034 -11.44437,-1.07364 -8.47823,-2.95381 z"
         id="path12" /><path
         style="fill:#dbdbdb;fill-opacity:1"
         d="m 248.7244,-171.50183 c -3.77023,-1.49175 -5.64392,-2.82067 -4.16376,-2.95317 1.48016,-0.13249 0.89929,-3.58912 -1.29083,-7.68139 -3.1702,-5.92357 -2.97679,-8.19458 0.94868,-11.1393 2.7119,-2.03435 5.9435,-6.39796 7.18135,-9.69691 1.23785,-3.29895 5.21875,-5.99808 8.84646,-5.99808 3.6277,0 7.48362,-2.31355 8.5687,-5.14122 1.08507,-2.82767 5.4916,-5.08104 9.79226,-5.00748 6.45959,0.11049 5.2817,1.66379 -6.77327,8.93202 -15.62087,9.4182 -21.5686,21.88238 -14.50396,30.39475 5.96156,7.18325 11.29237,6.35882 20.20118,-3.12417 7.33654,-7.80939 24.31911,-14.09546 24.31911,-9.00168 0,2.27511 -30.24356,18.09487 -41.12975,21.51409 -2.82767,0.88814 -8.22595,0.39428 -11.99617,-1.09746 z"
         id="path13" /><path
         style="fill:#d5d5d5;fill-opacity:1"
         d="m 257.33003,-179.79261 c -7.31027,-8.80833 -1.11073,-21.04246 15.63652,-30.857 18.53798,-10.86399 23.97386,-9.41899 7.65936,2.03604 -15.09345,10.5977 -20.29586,17.6266 -16.16157,21.83567 2.12884,2.16734 5.64482,1.86623 10.00519,-0.85687 10.70881,-6.68776 12.09602,-4.89862 3.38844,4.37018 -9.22551,9.82009 -14.51675,10.71502 -20.52794,3.47198 z"
         id="path14" /><path
         style="fill:#cacaca;fill-opacity:1"
         d="m 262.94052,-187.58674 c -2.46509,-3.98861 4.9183,-12.27961 19.99743,-22.45566 17.58494,-11.86708 21.11835,-11.65321 12.2908,0.74395 -9.3664,13.15389 -9.04557,14.13221 4.05096,12.35296 6.21785,-0.84474 4.06296,0.32884 -4.87742,2.65629 -8.8092,2.29331 -17.16367,5.32642 -18.56551,6.74026 -3.30059,3.32884 -10.82919,3.30678 -12.89626,-0.0378 z"
         id="path15" /><path
         style="fill:#818181;fill-opacity:1"
         d="m 652.52616,-153.60035 c -33.52916,-6.77727 -39.4198,-10.81311 -15.78261,-10.81311 9.50411,0 21.71451,-0.56309 27.13421,-1.25132 5.4197,-0.68822 7.15486,-0.58095 3.85591,0.23839 -3.29895,0.81933 -5.99809,3.58499 -5.99809,6.1459 0,3.12574 6.47789,5.38677 19.708,6.87884 25.27027,2.84993 30.23508,4.59929 12.85305,4.5288 -7.54045,-0.0306 -26.33716,-2.60795 -41.77047,-5.7275 z"
         id="path16" /><path
         style="fill:#333333;fill-opacity:1"
         d="m 779.9836,-82.415022 c -11.31068,-3.711052 -49.86982,-14.648728 -85.68697,-24.305948 -35.81715,-9.65722 -78.2322,-21.1105 -94.25567,-25.45174 -16.02346,-4.34124 -35.26066,-7.9731 -42.74933,-8.07078 -25.68599,-0.33507 -197.13964,39.53796 -234.87644,54.62255 -21.63966,8.650053 -42.46728,7.980387 -55.28971,-1.777718 -9.92783,-7.555258 -22.69577,-22.835932 -25.76595,-30.836712 -1.99014,-5.18623 -0.60735,-5.65987 11.11467,-3.80705 43.28909,6.84241 42.50294,6.8723 62.54144,-2.37861 29.42942,-13.58629 81.94558,-33.02346 105.93956,-39.21012 11.78196,-3.03789 21.42174,-6.65062 21.42174,-8.02828 0,-1.37767 -5.01268,-4.07895 -11.1393,-6.00286 -15.03092,-4.72007 -86.02903,-20.02979 -106.25184,-22.91168 -8.95429,-1.27605 -16.28053,-3.41848 -16.28053,-4.76095 0,-1.34247 3.82261,-6.032 8.49468,-10.42118 8.15779,-7.66385 9.95882,-7.89225 45.41409,-5.75946 37.18248,2.2367 94.46002,10.52298 148.31248,21.4562 38.29022,7.77376 55.21384,7.58823 104.5381,-1.146 22.62136,-4.00573 58.09576,-9.00627 78.83201,-11.11231 20.73625,-2.10603 48.74042,-5.48763 62.23149,-7.51466 50.71448,-7.61985 89.22621,13.70083 77.92844,43.14237 -3.53996,9.22497 -14.03264,6.01003 -21.45777,-6.57463 -6.11175,-10.35865 -8.84819,-11.9932 -20.04655,-11.97433 -7.13276,0.012 -30.70584,4.82174 -52.38465,10.68827 -54.08959,14.63725 -80.77061,19.86306 -102.16977,20.01121 -28.22664,0.19542 -18.29355,5.41749 22.37979,11.76561 20.32057,3.17154 46.64989,7.29836 58.50958,9.1707 11.8597,1.87233 29.5969,7.01864 39.41601,11.43623 29.693,13.35879 70.47268,23.23782 65.99118,15.9866 -2.40694,-3.89451 15.23638,-11.81963 27.67085,-12.42933 8.86862,-0.43486 10.40192,0.5662 9.01145,5.88338 -1.87264,7.16097 -50.36449,47.531192 -56.7472,47.242915 -2.24455,-0.101376 -13.3352,-3.220636 -24.64588,-6.931687 z"
         id="path17"
         sodipodi:nodetypes="sssssssssssssssssssssssssssssssss" /></g></g></g><text
   xml:space="preserve"
   style="font-size:127.653px;line-height:127.653px;font-family:'Snap ITC';-inkscape-font-specification:'Snap ITC';text-align:center;text-anchor:middle;fill:#333333;fill-opacity:1;stroke:#333333;stroke-width:3.42747875;stroke-dasharray:none;stroke-opacity:1"
   x="583.66052"
   y="481.36298"
   id="text4191"><tspan
     sodipodi:role="line"
     x="583.66052"
     y="481.36298"
     style="font-style:normal;font-variant:normal;font-weight:bold;font-stretch:normal;line-height:127.653px;font-family:'Tempus Sans ITC';-inkscape-font-specification:'Tempus Sans ITC Bold';fill:#333333;fill-opacity:1;stroke:#333333;stroke-width:3.42747875;stroke-dasharray:none;stroke-opacity:1"
     id="tspan4191">Vanilla Boot</tspan></text><text
   xml:space="preserve"
   style="font-style:normal;font-variant:normal;font-weight:normal;font-stretch:normal;font-size:37.8118px;line-height:37.8118px;font-family:Taxicab;-inkscape-font-specification:Taxicab;text-align:center;text-anchor:middle;fill:#333333;fill-opacity:0.677321;stroke:none;stroke-width:2.89395"
   x="591.07935"
   y="534.52954"
   id="text21"><tspan
     sodipodi:role="line"
     id="tspan20"
     style="fill:#333333;fill-opacity:0.677321;stroke-width:2.89395"
     x="591.07935"
     y="534.52954">Minimal Framework, Maximum Control</tspan><tspan
     sodipodi:role="line"
     style="fill:#333333;fill-opacity:0.677321;stroke-width:2.89395"
     x="591.07935"
     y="572.34131"
     id="tspan21">Pure JavaScript, Pure Freedom</tspan></text></g></svg>
